<svg xmlns="http://www.w3.org/2000/svg" xmlns:xlink="http://www.w3.org/1999/xlink" width="278" height="250" viewBox="0 0 278 250">
  <defs>
    <clipPath id="clip-path">
      <rect id="Rectangle_20619" data-name="Rectangle 20619" width="278" height="250" transform="translate(-0.215 0)" fill="none"/>
    </clipPath>
  </defs>
  <g id="Group_40996" data-name="Group 40996" transform="translate(0.215 -0.809)">
    <g id="Group_40993" data-name="Group 40993" transform="translate(0 0.809)">
      <g id="Group_40992" data-name="Group 40992" transform="translate(0 0)" clip-path="url(#clip-path)">
        <path id="Path_63934" data-name="Path 63934" d="M71.91,246.7C66,245.421-4.949,233.915.274,149.054S12.053,38.672,39.638,29.335,134.279-24.183,186.9,17.826,296.3,97.513,273.765,164.59s-26.221,89.451-85.009,86.028S99.99,252.773,71.91,246.7" transform="translate(0 -0.836)" fill="#e9f0fe"/>
        <path id="Path_63935" data-name="Path 63935" d="M351.83,114.592h77.137c.376-7.4-3.3-14.81-9.858-18.254a19.988,19.988,0,0,0-20.969,1.805c-5.258-4.532-10.721-9.18-17.355-11.222s-14.808-.779-18.9,4.825c-2.83,3.872-3.218,9.168-1.829,13.759q-9.013-.07-18.017.424c-3.422.188-8.086,1.184-8.256,4.607-.256,5.131,18.053,4.056,18.053,4.056" transform="translate(-240.706 -62.859)" fill="#fff" opacity="0.442"/>
        <path id="Path_63936" data-name="Path 63936" d="M146.917,292.577a6.617,6.617,0,0,0-4.619-.532c-.946.215-1.858.553-2.784.837-1.763.542-1.917,1-2.635-.531-.785-1.675.177-3.395-1.36-5.142a5.873,5.873,0,0,0-6.152-1.726A21.726,21.726,0,0,0,124.646,278c-4.4-4.234-11.125-6-16.869-3.628a17.936,17.936,0,0,0-6.649,4.927,21.718,21.718,0,0,0-2.491,3.571c-.643,1.151-.927,2.65-1.7,3.693-1.7-.639-3.263-1.482-5.032-1.97-3.466-.956-7.235-1.143-10.268,1.113A8.179,8.179,0,0,0,78.372,294c.456,1.754,1.288,3.052,3.067,3.077,2.515.036,5.034,0,7.549,0h62.327a13.348,13.348,0,0,0-4.4-4.5" transform="translate(-56.366 -197.937)" fill="#fff" opacity="0.442"/>
        <path id="Path_63937" data-name="Path 63937" d="M736.28,336.153a13.667,13.667,0,0,1,3.93-12.119c3.986-3.83,10.066-5.43,15.263-3.282a16.228,16.228,0,0,1,6.016,4.459,19.609,19.609,0,0,1,2.254,3.232,30.348,30.348,0,0,0,1.54,3.342c1.536-.578,2.953-1.341,4.554-1.783,3.136-.865,6.547-1.034,9.293,1.008a7.379,7.379,0,0,1,2.922,7.62c-.282,1-1.019,2.644-2.145,2.739-.326.028-.668,0-1,0H741.105c-.569,0-1.138,0-1.707,0-.667,0-.752-.125-1.148-.663a11.16,11.16,0,0,1-1.97-4.552" transform="translate(-530.822 -231.457)" fill="#fff" opacity="0.442"/>
      </g>
    </g>
    <g id="Group_168193" data-name="Group 168193" transform="translate(-544.215 -147.191)">
      <path id="Path_64158" data-name="Path 64158" d="M102.99,233.7c.07.248.57.519,1.622.816,4.8,1.355,21.441,1.557,29.675,1.6,12.032.068,24.776.185,36.436-.342,8.836-.4,19.11-1.446,10.332-2.977-2.847-.5-10.666-.818-14.733-1.048-9.221-.521-18.854-.909-28.634-.863-7.108.034-13.774.393-20.457.737-6.027.31-14.559.949-14.241,2.074" transform="translate(544 148)" fill="#dddcdc"/>
      <path id="Path_64159" data-name="Path 64159" d="M94.8,119.982l1,98.828a4.363,4.363,0,0,0,4.37,4.356h88.043a4.363,4.363,0,0,0,4.37-4.356v-15.4l-.074-8.489V101.07a4.363,4.363,0,0,0-4.37-4.356H118.07L94.8,119.965Z" transform="translate(544 148)" fill="#ecebeb"/>
      <path id="Path_64160" data-name="Path 64160" d="M192.584,203.619l-.07-8.28V103.8a4.2,4.2,0,0,0-4.15-4.249H121.795l-.961.985v17.349a4.588,4.588,0,0,1-4.587,4.588h-13.89a3.484,3.484,0,0,0-3.484,3.484v92.689a4.2,4.2,0,0,0,4.15,4.249h85.41a4.2,4.2,0,0,0,4.151-4.248h0Z" transform="translate(544 148)" fill="#fff"/>
      <path id="Path_64161" data-name="Path 64161" d="M118.117,96.439v18.732a4.587,4.587,0,0,1-4.587,4.587H94.8Z" transform="translate(544 148)" fill="#fff"/>
      <path id="Path_64162" data-name="Path 64162" d="M117.441,96.512V113.83a8.816,8.816,0,0,1-.234,2.863,4.023,4.023,0,0,1-4.156,2.644h-18l.3.564L115.8,99.449l2.868-2.868c.571-.571-.741-.641-1.1-.285L97.122,116.749l-2.868,2.868c-.274.274-.046.564.3.564h18.057c3.212,0,6.138-1.748,6.189-5.271.045-3.1,0-6.211,0-9.315V96.368c0-.615-1.353-.356-1.353.145" transform="translate(544 148)" fill="#516799"/>
      <path id="Path_64163" data-name="Path 64163" d="M121.895,166.276h41.121c.515,0,1.427-.777.52-.777H122.415c-.515,0-1.426.777-.52.777" transform="translate(544 148)" fill="#516799"/>
      <path id="Path_64164" data-name="Path 64164" d="M103.957,193.619h77.4c.771,0,1.032-.992.118-.992h-77.4c-.771,0-1.032.992-.118.992" transform="translate(544 148)" fill="#516799"/>
      <path id="Path_64165" data-name="Path 64165" d="M103.773,182.679h77.4c.6,0,1.394-.9.487-.9h-77.4c-.6,0-1.394.9-.487.9" transform="translate(544 148)" fill="#516799"/>
      <path id="Path_64166" data-name="Path 64166" d="M103.954,204.5h38.99c.762,0,1.04-.968.124-.968h-38.99c-.762,0-1.04.968-.124.968" transform="translate(544 148)" fill="#516799"/>
      <path id="Path_64167" data-name="Path 64167" d="M129,143.65c-.178.178.11-.1.175-.159.236-.207.473-.41.719-.606a20.433,20.433,0,0,1,2.772-1.853,22.57,22.57,0,0,1,10.786-2.868c5.148-.052,11.118,1.567,14.986,5.173.468.436,1.616-.263,1.029-.81-4.213-3.927-10.785-5.566-16.377-5.4-5.38.159-11.354,2.192-15.229,6.081-.6.6.686.9,1.139.442" transform="translate(544 148)" fill="#516799"/>
      <path id="Path_64168" data-name="Path 64168" d="M126.047,130.815a2.242,2.242,0,1,0-2.242,2.242,2.242,2.242,0,0,0,2.242-2.242" transform="translate(544 148)" fill="#516799"/>
      <path id="Path_64169" data-name="Path 64169" d="M165.21,130.815a2.242,2.242,0,1,0-2.242,2.242,2.242,2.242,0,0,0,2.242-2.242" transform="translate(544 148)" fill="#516799"/>
      <path id="Path_64170" data-name="Path 64170" d="M137.314,80.37,72.67,88.088a4.809,4.809,0,0,1-5.346-4.206L63.77,54.11a4.809,4.809,0,0,1,4.206-5.346l64.644-7.717a4.81,4.81,0,0,1,5.346,4.2l3.554,29.772a4.81,4.81,0,0,1-4.206,5.346" transform="translate(544 148)" fill="#ea7a6c"/>
      <path id="Path_64171" data-name="Path 64171" d="M137.314,80.37,76.528,87.627a4.809,4.809,0,0,1-5.346-4.206L68.056,57.243A4.809,4.809,0,0,1,72.262,51.9l60.786-7.257a4.809,4.809,0,0,1,5.346,4.206l3.126,26.181a4.81,4.81,0,0,1-4.206,5.346" transform="translate(544 148)" fill="#f69885"/>
      <path id="Path_64172" data-name="Path 64172" d="M137.368,79.911,123.242,81.6,95.108,84.956,74.331,87.437c-.513.061-1.026.138-1.54.184a4.468,4.468,0,0,1-4.82-3.994c-.419-2.788-.67-5.611-1-8.41L65.29,61.142l-.627-5.252a18.032,18.032,0,0,1-.263-2.613,4.239,4.239,0,0,1,3.764-4.13c.68-.1,1.365-.163,2.047-.244l8.883-1.06,27.566-3.291,22.829-2.725c1.982-.237,4.247-.841,5.991.448,2.332,1.724,2.129,5.931,2.44,8.532.951,7.969,1.981,15.932,2.855,23.91.259,2.367-.8,4.781-3.4,5.193-.694.11-1.07,1.022-.149.876a5.545,5.545,0,0,0,4.954-5.965c-.067-.762-.182-1.523-.273-2.283l-1.57-13.154-1.5-12.568a10.927,10.927,0,0,0-.6-3.182,5.418,5.418,0,0,0-5.6-3.043c-5.5.508-10.985,1.311-16.467,1.966L86.544,46.094c-6.073.725-12.158,1.389-18.223,2.175a5.653,5.653,0,0,0-5.231,6.044,5.732,5.732,0,0,0,.073.583q.656,5.487,1.31,10.974l1.686,14.122c.378,3.165.294,6.991,3.945,8.252,1.75.6,3.858.1,5.65-.119L85.9,86.913l29.205-3.487,21.032-2.511,1.088-.13c.705-.084,1.074-.987.149-.876" transform="translate(544 148)" fill="#516799"/>
      <path id="Path_64173" data-name="Path 64173" d="M85.529,76.074l-.365-3.055L76.919,74a3.416,3.416,0,0,1-2.425-.427,2.478,2.478,0,0,1-1.01-1.829,1.872,1.872,0,0,1,.04-.646,3.3,3.3,0,0,1,.264-.715c.125-.254.259-.5.4-.738s.312-.531.512-.878l7.315-12.685a13.419,13.419,0,0,1,1.205-1.834,1.877,1.877,0,0,1,1.261-.675q2.5-.3,2.838,2.56l1.518,12.712.706-.084a5.02,5.02,0,0,1,2.07.1,1.491,1.491,0,0,1,.944,1.42,1.583,1.583,0,0,1-.458,1.462,3.306,3.306,0,0,1-1.82.659l-1,.12.364,3.055a2.746,2.746,0,0,1-.334,1.947,2.105,2.105,0,0,1-2.956.36l-.027-.021a2.729,2.729,0,0,1-.789-1.8M77.67,70.176l7.063-.843L83.594,59.79Z" transform="translate(544 148)" fill="#fff"/>
      <path id="Path_64174" data-name="Path 64174" d="M110.977,63.174a28.375,28.375,0,0,1,.224,4.671,10.859,10.859,0,0,1-.8,3.66,8.127,8.127,0,0,1-2.533,3.334,7.909,7.909,0,0,1-8.461.644,8.652,8.652,0,0,1-3.448-3.553,14.686,14.686,0,0,1-1.107-2.924,25.23,25.23,0,0,1-.665-3.544,34.546,34.546,0,0,1-.27-4.5,14.854,14.854,0,0,1,.413-3.514,7.4,7.4,0,0,1,6.649-5.708,8.269,8.269,0,0,1,3.137.184,7.051,7.051,0,0,1,2.615,1.32,9.274,9.274,0,0,1,2.078,2.409,18.987,18.987,0,0,1,2.164,7.522m-4.54.209a27.6,27.6,0,0,0-.949-4.876,6.1,6.1,0,0,0-1.561-2.746,3,3,0,0,0-2.482-.695,3.061,3.061,0,0,0-2.753,2.544,20.06,20.06,0,0,0-.042,6.835,29.115,29.115,0,0,0,.965,5.016,6.406,6.406,0,0,0,1.571,2.836,3.2,3.2,0,0,0,4.509-.384c.059-.07.114-.142.167-.216a6.567,6.567,0,0,0,.84-3.149,30.771,30.771,0,0,0-.267-5.166" transform="translate(544 148)" fill="#fff"/>
      <path id="Path_64175" data-name="Path 64175" d="M125.508,71.3l-.365-3.055-8.245.985a3.416,3.416,0,0,1-2.425-.427,2.478,2.478,0,0,1-1.01-1.829,1.872,1.872,0,0,1,.04-.646,3.252,3.252,0,0,1,.265-.715c.125-.254.256-.5.4-.738l.511-.878,7.315-12.685a13.429,13.429,0,0,1,1.205-1.835,1.877,1.877,0,0,1,1.261-.675q2.5-.3,2.838,2.56l1.518,12.712.706-.084a5.018,5.018,0,0,1,2.07.1,1.491,1.491,0,0,1,.944,1.42,1.583,1.583,0,0,1-.459,1.463,3.3,3.3,0,0,1-1.82.659l-1,.12.365,3.055a2.746,2.746,0,0,1-.334,1.947,2.105,2.105,0,0,1-2.956.36l-.027-.021a2.734,2.734,0,0,1-.789-1.8M117.644,65.4l7.063-.843-1.139-9.543Z" transform="translate(544 148)" fill="#fff"/>
      <path id="Path_64176" data-name="Path 64176" d="M94.921,145.214c-2.6-.128-5.372-1.451-7.635-2.6a38.2,38.2,0,0,1-13.662-12.127c-.374-.528-1.65.015-1.229.608a39.393,39.393,0,0,0,13.856,12.329c2.421,1.257,5.424,2.681,8.217,2.819.685.034,1.36-.984.453-1.028" transform="translate(544 148)" fill="#516799"/>
      <path id="Path_64177" data-name="Path 64177" d="M94.921,145.214c-2.6-.128-5.372-1.451-7.635-2.6a38.2,38.2,0,0,1-13.662-12.127c-.374-.528-1.65.015-1.229.608a39.393,39.393,0,0,0,13.856,12.329c2.421,1.257,5.424,2.681,8.217,2.819.685.034,1.36-.984.453-1.028" transform="translate(544 148)" fill="none" stroke="#526699" stroke-width="0.25"/>
      <path id="Path_64178" data-name="Path 64178" d="M75.07,144.77l-2.625-22.439-4.181-35.75q-.479-4.094-.958-8.186c-.025-.217-1.384.039-1.347.361l2.625,22.439q2.091,17.875,4.181,35.75.479,4.093.958,8.186c.026.217,1.384-.039,1.347-.361" transform="translate(544 148)" fill="#516799"/>
      <path id="Path_64179" data-name="Path 64179" d="M139.173,222.912v10.045c0,.673,1,.481,1-.1v-10.05c0-.673-1-.481-1,.1" transform="translate(544 148)" fill="#516799"/>
      <path id="Path_64180" data-name="Path 64180" d="M147.261,222.9v10.073c0,.658,1,.449,1-.109V222.793c0-.658-1-.448-1,.109" transform="translate(544 148)" fill="#516799"/>
      <path id="Path_64181" data-name="Path 64181" d="M120.662,96.009h66.666a6,6,0,0,1,6,6V216.891a6,6,0,0,1-6,6h-86.2a6,6,0,0,1-6-6V122.215a6,6,0,0,1,1.686-4.17l19.53-20.206A6,6,0,0,1,120.662,96.009Z" transform="translate(544 148)" fill="none" stroke="#516799" stroke-width="1"/>
      <path id="Path_64182" data-name="Path 64182" d="M193.328,143.587S195.52,158.918,212.7,160.3" transform="translate(544 148)" fill="none" stroke="#516799" stroke-width="1"/>
    </g>
  </g>
</svg>
