<svg xmlns="http://www.w3.org/2000/svg" width="124" height="133.699" viewBox="0 0 124 133.699">
  <g id="Group_185653" data-name="Group 185653" transform="translate(-1171 -143)">
    <g id="Group_169801" data-name="Group 169801" transform="translate(31 5)">
      <path id="Path_86577" data-name="Path 86577" d="M62,0A62,62,0,1,1,0,62,62,62,0,0,1,62,0Z" transform="translate(1140 138)" fill="#ffcd41"/>
      <text id="Contribute_Now_" data-name="Contribute
Now!" transform="translate(1203 195)" font-size="16" font-family="HCLTechRoobert-Bold, HCLTech Roobert" font-weight="700" text-decoration="underline"><tspan x="-40.688" y="0">Contribute</tspan><tspan x="-18.704" y="22">Now!</tspan></text>
    </g>
    <g id="Group_185018" data-name="Group 185018" transform="translate(-3.95 8.661)">
      <g id="noun-pointer-4629240" transform="translate(1180.381 214.895)">
        <path id="Path_137575" data-name="Path 137575" d="M163.765,39.922l3.729-2.153-20.24-13.528,1.6,24.292,3.729-2.153,3.883,6.725,11.187-6.459-3.883-6.725Zm-23.451-25.7a1,1,0,1,1,1.732-1l4.152,7.192a1,1,0,1,1-1.732,1Zm3.119,8.538a1,1,0,1,1-.517,1.936l-8.02-2.149a1,1,0,1,1,.517-1.936l8.022,2.149Zm-.295,3.617a1,1,0,0,1,1,1.734l-7.192,4.152a1,1,0,1,1-1-1.734Zm15.215-8.784a1,1,0,1,1,1,1.734l-7.192,4.152a1,1,0,1,1-1-1.734Zm-8.325-5.419a1,1,0,1,1,1.936.517l-2.149,8.02a1,1,0,0,1-1.937-.517l2.149-8.02Z" transform="translate(-59.03)" fill="#fff" fill-rule="evenodd"/>
      </g>
      <g id="noun-pointer-4629240-2" data-name="noun-pointer-4629240" transform="translate(1180.787 211.912)">
        <path id="Path_137575-2" data-name="Path 137575" d="M166.014,41.988l4.013-2.31L148.249,25.17l1.717,26.053,4.013-2.31,4.178,7.212L170.193,49.2l-4.178-7.212ZM140.781,14.421a1.074,1.074,0,0,1,1.864-1.068l4.467,7.713a1.074,1.074,0,0,1-1.864,1.068Zm3.356,9.157a1.075,1.075,0,1,1-.557,2.076l-8.63-2.305a1.075,1.075,0,1,1,.557-2.076l8.631,2.305Zm-.317,3.88a1.073,1.073,0,1,1,1.072,1.859l-7.738,4.453a1.073,1.073,0,1,1-1.072-1.859Zm16.37-9.421a1.073,1.073,0,1,1,1.072,1.859l-7.738,4.453a1.073,1.073,0,1,1-1.072-1.859Zm-8.958-5.812a1.078,1.078,0,0,1,2.083.555L151,21.382a1.078,1.078,0,0,1-2.084-.555l2.313-8.6Z" transform="translate(-59.03 0)" fill-rule="evenodd"/>
      </g>
    </g>
  </g>
</svg>
