<svg id="Group_185958" data-name="Group 185958" xmlns="http://www.w3.org/2000/svg" width="32" height="32" viewBox="0 0 32 32">
  <rect id="Rectangle_149896" data-name="Rectangle 149896" width="32" height="32" rx="4" fill="#e6ebf5" opacity="0.996"/>
  <g id="Close" transform="translate(12 12)">
    <path id="Union_201" data-name="Union 201" d="M.082,7.919a.279.279,0,0,1,0-.395L3.605,4,.082.477A.279.279,0,0,1,.476.082L4,3.606,7.524.082a.279.279,0,1,1,.395.395L4.395,4,7.918,7.524a.279.279,0,0,1-.395.395L4,4.4.477,7.919a.279.279,0,0,1-.395,0Z" fill="#14142b" stroke="#14142b" stroke-linecap="round" stroke-width="1"/>
  </g>
</svg>
