<svg xmlns="http://www.w3.org/2000/svg" xmlns:xlink="http://www.w3.org/1999/xlink" width="278" height="250" viewBox="0 0 278 250">
  <defs>
    <clipPath id="clip-path">
      <rect id="Rectangle_20619" data-name="Rectangle 20619" width="278" height="250" transform="translate(-0.215 0)" fill="none"/>
    </clipPath>
    <clipPath id="clip-path-2">
      <rect id="Rectangle_20652" data-name="Rectangle 20652" width="197.041" height="110.771" fill="none"/>
    </clipPath>
    <clipPath id="clip-path-4">
      <rect id="Rectangle_20659" data-name="Rectangle 20659" width="20.457" height="33.954" fill="none"/>
    </clipPath>
  </defs>
  <g id="Group_168199" data-name="Group 168199" transform="translate(-544 -158)">
    <g id="Group_40993" data-name="Group 40993" transform="translate(544.215 158)">
      <g id="Group_40992" data-name="Group 40992" transform="translate(0 0)" clip-path="url(#clip-path)">
        <path id="Path_63934" data-name="Path 63934" d="M71.91,246.7C66,245.421-4.949,233.915.274,149.054S12.053,38.672,39.638,29.335,134.279-24.183,186.9,17.826,296.3,97.513,273.765,164.59s-26.221,89.451-85.009,86.028S99.99,252.773,71.91,246.7" transform="translate(0 -0.836)" fill="#e9f0fe"/>
        <path id="Path_63935" data-name="Path 63935" d="M351.83,114.592h77.137c.376-7.4-3.3-14.81-9.858-18.254a19.988,19.988,0,0,0-20.969,1.805c-5.258-4.532-10.721-9.18-17.355-11.222s-14.808-.779-18.9,4.825c-2.83,3.872-3.218,9.168-1.829,13.759q-9.013-.07-18.017.424c-3.422.188-8.086,1.184-8.256,4.607-.256,5.131,18.053,4.056,18.053,4.056" transform="translate(-240.706 -62.859)" fill="#fff" opacity="0.442"/>
        <path id="Path_63936" data-name="Path 63936" d="M146.917,292.577a6.617,6.617,0,0,0-4.619-.532c-.946.215-1.858.553-2.784.837-1.763.542-1.917,1-2.635-.531-.785-1.675.177-3.395-1.36-5.142a5.873,5.873,0,0,0-6.152-1.726A21.726,21.726,0,0,0,124.646,278c-4.4-4.234-11.125-6-16.869-3.628a17.936,17.936,0,0,0-6.649,4.927,21.718,21.718,0,0,0-2.491,3.571c-.643,1.151-.927,2.65-1.7,3.693-1.7-.639-3.263-1.482-5.032-1.97-3.466-.956-7.235-1.143-10.268,1.113A8.179,8.179,0,0,0,78.372,294c.456,1.754,1.288,3.052,3.067,3.077,2.515.036,5.034,0,7.549,0h62.327a13.348,13.348,0,0,0-4.4-4.5" transform="translate(-56.366 -197.937)" fill="#fff" opacity="0.442"/>
        <path id="Path_63937" data-name="Path 63937" d="M736.28,336.153a13.667,13.667,0,0,1,3.93-12.119c3.986-3.83,10.066-5.43,15.263-3.282a16.228,16.228,0,0,1,6.016,4.459,19.609,19.609,0,0,1,2.254,3.232,30.348,30.348,0,0,0,1.54,3.342c1.536-.578,2.953-1.341,4.554-1.783,3.136-.865,6.547-1.034,9.293,1.008a7.379,7.379,0,0,1,2.922,7.62c-.282,1-1.019,2.644-2.145,2.739-.326.028-.668,0-1,0H741.105c-.569,0-1.138,0-1.707,0-.667,0-.752-.125-1.148-.663a11.16,11.16,0,0,1-1.97-4.552" transform="translate(-530.822 -231.457)" fill="#fff" opacity="0.442"/>
      </g>
    </g>
    <g id="Group_166600" data-name="Group 166600" transform="translate(-342.521 -15877.405)">
      <g id="Group_166601" data-name="Group 166601" transform="translate(926.521 16117.405)">
        <g id="Group_41042" data-name="Group 41042" clip-path="url(#clip-path-2)">
          <g id="Group_41041" data-name="Group 41041">
            <g id="Group_41040" data-name="Group 41040" clip-path="url(#clip-path-2)">
              <path id="Path_64104" data-name="Path 64104" d="M6.489,678.743c-12.207-3.294,53.145-7.024,74.892-6.563,27.352.581,114.052,2.021,118.005,4.222,10.367,5.784-88,6.24-100.06,6.064-20.111-.294-74.059,1.349-92.837-3.723" transform="translate(-4.238 -571.728)" fill="#e5e5e5"/>
              <path id="Path_64105" data-name="Path 64105" d="M189.177,656.147H13.739a8.714,8.714,0,0,1-8.708-8.708v-.519a.51.51,0,0,1,.51-.51H197.387a.51.51,0,0,1,.51.51v.511a8.729,8.729,0,0,1-8.719,8.719" transform="translate(-4.279 -549.84)" fill="#f2f2f2"/>
              <path id="Path_64106" data-name="Path 64106" d="M185.161,653.652H10.968a14.905,14.905,0,0,1-2.586-.117A8.577,8.577,0,0,1,1.6,646.944a14.751,14.751,0,0,0-.2-1.977c-.028-.071-.2-.554-.383-.392.027-.024.127.01.161,0a8.644,8.644,0,0,1,2.205,0H190.559a6.834,6.834,0,0,1,2.143,0c.671.311.176,2.2.032,2.8a8.043,8.043,0,0,1-7.573,6.273c-.438.01-1.392.682-.525.663a10.064,10.064,0,0,0,7.385-3.282,8.978,8.978,0,0,0,2-3.838c.162-.682.676-2.691-.138-3.173a4.047,4.047,0,0,0-1.71-.1H3.942c-.745,0-1.5-.043-2.248,0a1.74,1.74,0,0,0-1.472.593c-.533.887.028,2.787.311,3.661A8.943,8.943,0,0,0,2.821,651.8c2.866,2.754,6.42,2.52,10.017,2.52H184.633c.441,0,1.393-.663.525-.663" transform="translate(0 -547.677)" fill="#6a79a8"/>
              <path id="Path_64107" data-name="Path 64107" d="M276.4,98.457V5.372a3.073,3.073,0,0,0-3.063-3.065H120.04a3.073,3.073,0,0,0-3.063,3.065V98.457Z" transform="translate(-99.501 -1.962)" fill="#e5e5e5"/>
              <path id="Path_64108" data-name="Path 64108" d="M116.328.25c-2.066.12-3.887,1.36-3.983,3.563-.012.3,0,.606,0,.908V94.8a4.683,4.683,0,0,0,0,1.366.575.575,0,0,1,0,.172c0,.287,1.3.08,1.3-.348V14.051c0-3.5-.179-7.054,0-10.557A2.512,2.512,0,0,1,115.788.859c.4-.023,1.4-.66.538-.609" transform="translate(-95.519 -0.21)" fill="#6a79a8"/>
              <path id="Path_64109" data-name="Path 64109" d="M294.382,98.457V5.372a3.073,3.073,0,0,0-3.063-3.065H138.025a3.073,3.073,0,0,0-3.063,3.065V98.457Z" transform="translate(-114.8 -1.962)" fill="#fff"/>
              <path id="Path_64110" data-name="Path 64110" d="M291.014,96.32V5.378c0-.712.037-1.434,0-2.144C290.9.969,289.053.026,287.048.018c-8.081-.04-16.165,0-24.246,0H137.262c-2.765,0-6.784-.331-6.965,3.57-.129,2.768,0,5.572,0,8.342v84.74c0,.145.306.154.386.154H270.5c6.432,0,12.916.245,19.343,0h.262c.436,0,1.4-.655.527-.655H133.636a12.269,12.269,0,0,0-2.165,0,1.481,1.481,0,0,1-.262,0l.386.154V5.938c0-.885-.048-1.783,0-2.667a2.623,2.623,0,0,1,2.635-2.61q.112,0,.223.01H283.714c2.422,0,5.844-.563,6,2.976.136,3.022,0,6.081,0,9.105V96.668c0,.328,1.3.1,1.3-.347" transform="translate(-110.782 0)" fill="#6a79a8"/>
              <path id="Path_64111" data-name="Path 64111" d="M207.169,656.147H31.731a8.714,8.714,0,0,1-8.708-8.708v-.519a.51.51,0,0,1,.51-.51H215.379a.51.51,0,0,1,.51.51v.511a8.729,8.729,0,0,1-8.719,8.719" transform="translate(-19.584 -549.84)" fill="#fff"/>
              <path id="Path_64112" data-name="Path 64112" d="M203.442,654.134H29.246a15.515,15.515,0,0,1-2.617-.113,8.668,8.668,0,0,1-6.828-6.3c-.189-.726-.124-1.482-.28-2.2-.019-.086.05-.311,0-.387l-.558-.208h.011a1.159,1.159,0,0,0,.148,0,8.6,8.6,0,0,1,2.158,0H208.454a8.276,8.276,0,0,1,2.191,0c.805.266.409,1.915.29,2.535a8.066,8.066,0,0,1-7.5,6.675c-.276.006-1.464.545-.841.531a10.324,10.324,0,0,0,7.293-3,8.906,8.906,0,0,0,2.157-3.728c.2-.7.822-2.9.049-3.432-.371-.256-1.235-.114-1.64-.114H22.219c-.747,0-1.5-.029-2.248,0a2.282,2.282,0,0,0-1.436.384c-.77.683-.215,2.645.016,3.459a8.854,8.854,0,0,0,2.139,3.706c2.835,2.951,6.448,2.724,10.114,2.724H202.6c.278,0,1.469-.531.841-.531" transform="translate(-15.431 -548.093)" fill="#6a79a8"/>
              <path id="Path_64113" data-name="Path 64113" d="M515.774,644.854c.68,2.98,3.527,2.7,5.884,2.7h32.886c2.61,0,6.105.328,6.862-2.987.044-.191-.255-.174-.366-.174H516.7c-.38,0-1.41.565-.551.565h44.336l-.366-.174c-.636,2.783-3.339,2.206-5.492,2.206H523.6c-2.413,0-5.81.654-6.528-2.49-.072-.311-1.376.009-1.3.347" transform="translate(-438.718 -548.112)" fill="#6a79a8"/>
              <rect id="Rectangle_20648" data-name="Rectangle 20648" width="144.593" height="84.342" transform="translate(26.232 7.741)" fill="#fff"/>
              <rect id="Rectangle_20649" data-name="Rectangle 20649" width="2.688" height="84.342" transform="translate(168.138 7.741)" fill="#e5e5e5"/>
              <path id="Path_64114" data-name="Path 64114" d="M1121.093,54.777V137.5c0,.631,1.309.4,1.309-.121V54.656c0-.631-1.309-.4-1.309.122" transform="translate(-953.609 -46.166)" fill="#6a79a8"/>
              <path id="Path_64115" data-name="Path 64115" d="M316.919,49.733H190.14c-5.849,0-11.723-.149-17.566,0h-.249c-.223,0-1.072.1-1.072.431V134.5c0,.074.2.082.226.082H298.255c5.849,0,11.723.149,17.566,0h.249c.223,0,1.072-.1,1.072-.431V49.815c0-.188-1.3-.011-1.3.349V134.5l1.073-.43H174.53c-.564,0-1.132-.02-1.7,0a1.464,1.464,0,0,1-.415,0c-.232-.075.147.177.131.059a34.446,34.446,0,0,1,0-4.546V49.811l-1.072.431H298.255c5.849,0,11.723.149,17.566,0h.249c.267,0,1.464-.513.846-.513" transform="translate(-145.669 -42.247)" fill="#6a79a8"/>
            </g>
          </g>
        </g>
      </g>
    </g>
    <g id="Group_168203" data-name="Group 168203" transform="translate(-1 -1)">
      <g id="Group_166603" data-name="Group 166603" transform="translate(673 275)">
        <g id="Group_41052" data-name="Group 41052" clip-path="url(#clip-path-4)">
          <path id="Path_64147" data-name="Path 64147" d="M150.84,288.541a1.336,1.336,0,0,0,0,2.672h17.787a1.336,1.336,0,0,0,0-2.672Z" transform="translate(-149.504 -288.541)" fill="#6e78a4"/>
          <path id="Path_64148" data-name="Path 64148" d="M152.645,298.678v4.744c0,4.415,3.331,7.25,7.131,9.083,1.327.64,1.282,1.679,0,2.306-3.79,1.854-7.131,4.669-7.131,9.082v3.037a1.561,1.561,0,0,1,.452-.067h.418v-2.97a7.188,7.188,0,0,1,1.927-4.926,15.129,15.129,0,0,1,4.716-3.375,2.01,2.01,0,0,0,0-3.872,14.854,14.854,0,0,1-4.714-3.364,7.216,7.216,0,0,1-1.924-4.935v-4.678H153.1a1.579,1.579,0,0,1-.452-.067" transform="translate(-151.762 -295.827)" fill="#6e78a4"/>
          <path id="Path_64149" data-name="Path 64149" d="M196.13,298.678a1.583,1.583,0,0,1-.45.067h-.419v4.678a7.22,7.22,0,0,1-1.924,4.936,14.812,14.812,0,0,1-4.715,3.362,2.007,2.007,0,0,0-.009,3.87,15.419,15.419,0,0,1,4.717,3.385,7.157,7.157,0,0,1,1.93,4.917v2.97h.42a1.562,1.562,0,0,1,.452.067v-3.037c0-4.414-3.351-7.208-7.131-9.083-1.344-.667-1.287-1.687,0-2.306,3.8-1.83,7.128-4.67,7.128-9.083Z" transform="translate(-176.558 -295.827)" fill="#6e78a4"/>
          <path id="Path_64150" data-name="Path 64150" d="M157.271,321.523a7.126,7.126,0,0,0,1.643,3.031,14.54,14.54,0,0,0,4.607,3.282,2.615,2.615,0,0,1,1.663,2.218v.045l-.219,9.143a2.588,2.588,0,0,1-.125.562c-.01.024-.022.047-.033.07l0,.007a1.328,1.328,0,0,1-.717.641l-6.961,2.623h16.17l-6.96-2.623a1.327,1.327,0,0,1-.718-.643c-.013-.025-.026-.051-.037-.077a2.6,2.6,0,0,1-.124-.56l-.227-9.143v-.06a2.6,2.6,0,0,1,1.671-2.2,14.516,14.516,0,0,0,4.607-3.281,7.133,7.133,0,0,0,1.642-3.032Z" transform="translate(-154.981 -312.248)" fill="#6e78a4"/>
          <path id="Path_64151" data-name="Path 64151" d="M150.84,399.785a1.336,1.336,0,0,0,0,2.672h17.787a1.336,1.336,0,1,0,0-2.672Z" transform="translate(-149.504 -368.502)" fill="#6e78a4"/>
        </g>
      </g>
    </g>
  </g>
</svg>
