<?xml version="1.0" encoding="UTF-8"?><svg id="Layer_1" xmlns="http://www.w3.org/2000/svg" viewBox="0 0 40 40"><defs><style>.cls-1{fill:#fff;}</style></defs><path class="cls-1" d="m37.06,30.44c1.93-3.14,2.95-6.76,2.94-10.44h0c0-3.69-1.01-7.3-2.94-10.44v-.02c-2.41-3.9-6.07-6.87-10.39-8.4-4.32-1.53-9.03-1.53-13.35,0-4.32,1.53-7.98,4.49-10.37,8.4v.02C1.02,12.7,0,16.32,0,20s1.02,7.3,2.94,10.44v.02s.01,0,.01,0c2.39,3.9,6.06,6.87,10.37,8.39s9.03,1.53,13.35,0c4.32-1.53,7.98-4.49,10.37-8.4v-.02Zm-14.5,6.13h0c-.38.37-.82.67-1.3.9-.8.38-1.72.38-2.52,0-.91-.47-1.69-1.15-2.27-2-1.18-1.7-2.05-3.6-2.58-5.6,2.03-.13,4.07-.19,6.11-.19,2.04,0,4.07.06,6.11.19-.29,1.03-.66,2.04-1.1,3.02-.57,1.38-1.41,2.63-2.46,3.69h0ZM2.29,21.12h8.07c.05,2.25.3,4.49.73,6.7-2.21.19-4.4.46-6.6.8h0c-1.28-2.3-2.04-4.87-2.2-7.5h0Zm2.2-9.75c2.19.34,4.39.61,6.6.8-.43,2.21-.68,4.45-.73,6.7H2.29c.16-2.63.91-5.2,2.2-7.5h0Zm12.96-7.95c.38-.37.82-.67,1.3-.9.8-.38,1.72-.38,2.52,0,.91.47,1.69,1.15,2.27,2,1.18,1.7,2.05,3.6,2.58,5.6-2.03.13-4.07.19-6.11.19-2.04,0-4.07-.06-6.11-.19.29-1.03.66-2.04,1.1-3.02.57-1.38,1.41-2.63,2.46-3.69h0Zm20.27,15.45h-8.07c-.05-2.25-.3-4.49-.73-6.7,2.21-.19,4.4-.46,6.6-.8h0c1.28,2.3,2.04,4.87,2.2,7.5h0Zm-24.37,8.78c-.44-2.15-.69-4.33-.74-6.53h14.8c-.05,2.19-.3,4.38-.74,6.53-2.22-.15-4.44-.22-6.66-.22-2.22,0-4.44.07-6.66.22h0Zm13.31-15.3c.44,2.15.69,4.33.74,6.53h-14.8c.05-2.19.3-4.38.74-6.53,2.22.15,4.44.22,6.66.22,2.22,0,4.44-.07,6.66-.22h0Zm2.99,8.78h8.07c-.16,2.63-.91,5.2-2.2,7.5-2.19-.34-4.39-.61-6.6-.8.43-2.21.68-4.45.73-6.7h0Zm4.52-11.82c-1.92.28-3.84.5-5.77.66-.35-1.29-.79-2.55-1.34-3.77-.5-1.12-1.12-2.19-1.86-3.17,3.58,1.1,6.72,3.3,8.97,6.28h0Zm-26.72-1.86c2.05-2.05,4.58-3.57,7.35-4.42-.04.05-.09.11-.13.16h0c-1.43,2.05-2.47,4.35-3.07,6.78-1.93-.16-3.85-.38-5.77-.66.5-.66,1.04-1.28,1.62-1.86h0Zm-1.62,23.25c1.92-.28,3.84-.5,5.77-.66h0c.35,1.29.79,2.55,1.34,3.77.5,1.12,1.12,2.19,1.86,3.17-3.58-1.1-6.72-3.3-8.97-6.28h0Zm26.72,1.86h0c-2.05,2.05-4.58,3.57-7.35,4.42.04-.05.09-.11.13-.16h0c1.43-2.05,2.47-4.35,3.07-6.78,1.93.16,3.85.38,5.77.66-.5.66-1.04,1.28-1.62,1.86h0Z"/></svg>