<svg xmlns="http://www.w3.org/2000/svg" xmlns:xlink="http://www.w3.org/1999/xlink" width="278" height="250" viewBox="0 0 278 250">
  <defs>
    <clipPath id="clip-path">
      <rect id="Rectangle_20619" data-name="Rectangle 20619" width="278" height="250" transform="translate(-0.215 0)" fill="none"/>
    </clipPath>
    <clipPath id="clip-path-2">
      <rect id="Rectangle_20631" data-name="Rectangle 20631" width="149.921" height="169.006" fill="none"/>
    </clipPath>
    <clipPath id="clip-path-4">
      <rect id="Rectangle_20629" data-name="Rectangle 20629" width="92.163" height="92.163" fill="none"/>
    </clipPath>
  </defs>
  <g id="Group_168191" data-name="Group 168191" transform="translate(-544 -148)">
    <g id="Group_166588" data-name="Group 166588" transform="translate(544.215 148)">
      <g id="Group_40992" data-name="Group 40992" transform="translate(0 0)" clip-path="url(#clip-path)">
        <path id="Path_63934" data-name="Path 63934" d="M71.91,246.7C66,245.421-4.949,233.915.274,149.054S12.053,38.672,39.638,29.335,134.279-24.183,186.9,17.826,296.3,97.513,273.765,164.59s-26.221,89.451-85.009,86.028S99.99,252.773,71.91,246.7" transform="translate(0 -0.836)" fill="#e9f0fe"/>
        <path id="Path_63935" data-name="Path 63935" d="M351.83,114.592h77.137c.376-7.4-3.3-14.81-9.858-18.254a19.988,19.988,0,0,0-20.969,1.805c-5.258-4.532-10.721-9.18-17.355-11.222s-14.808-.779-18.9,4.825c-2.83,3.872-3.218,9.168-1.829,13.759q-9.013-.07-18.017.424c-3.422.188-8.086,1.184-8.256,4.607-.256,5.131,18.053,4.056,18.053,4.056" transform="translate(-240.706 -62.859)" fill="#fff" opacity="0.442"/>
        <path id="Path_63936" data-name="Path 63936" d="M146.917,292.577a6.617,6.617,0,0,0-4.619-.532c-.946.215-1.858.553-2.784.837-1.763.542-1.917,1-2.635-.531-.785-1.675.177-3.395-1.36-5.142a5.873,5.873,0,0,0-6.152-1.726A21.726,21.726,0,0,0,124.646,278c-4.4-4.234-11.125-6-16.869-3.628a17.936,17.936,0,0,0-6.649,4.927,21.718,21.718,0,0,0-2.491,3.571c-.643,1.151-.927,2.65-1.7,3.693-1.7-.639-3.263-1.482-5.032-1.97-3.466-.956-7.235-1.143-10.268,1.113A8.179,8.179,0,0,0,78.372,294c.456,1.754,1.288,3.052,3.067,3.077,2.515.036,5.034,0,7.549,0h62.327a13.348,13.348,0,0,0-4.4-4.5" transform="translate(-56.366 -197.937)" fill="#fff" opacity="0.442"/>
        <path id="Path_63937" data-name="Path 63937" d="M736.28,336.153a13.667,13.667,0,0,1,3.93-12.119c3.986-3.83,10.066-5.43,15.263-3.282a16.228,16.228,0,0,1,6.016,4.459,19.609,19.609,0,0,1,2.254,3.232,30.348,30.348,0,0,0,1.54,3.342c1.536-.578,2.953-1.341,4.554-1.783,3.136-.865,6.547-1.034,9.293,1.008a7.379,7.379,0,0,1,2.922,7.62c-.282,1-1.019,2.644-2.145,2.739-.326.028-.668,0-1,0H741.105c-.569,0-1.138,0-1.707,0-.667,0-.752-.125-1.148-.663a11.16,11.16,0,0,1-1.97-4.552" transform="translate(-530.822 -231.457)" fill="#fff" opacity="0.442"/>
      </g>
    </g>
    <g id="Group_166589" data-name="Group 166589" transform="translate(607 207.715)">
      <g id="Group_41019" data-name="Group 41019" clip-path="url(#clip-path-2)">
        <g id="Group_41018" data-name="Group 41018">
          <g id="Group_41017" data-name="Group 41017" clip-path="url(#clip-path-2)">
            <path id="Path_63976" data-name="Path 63976" d="M145.908,181.495a5.881,5.881,0,0,0,.76-8.282L102.2,119.753A58.772,58.772,0,1,0,90.13,128.82l2.781-1.839,44.715,53.754a5.881,5.881,0,0,0,8.282.76M107.077,81.9A46.079,46.079,0,1,1,65.4,31.8a46.132,46.132,0,0,1,41.674,50.1" transform="translate(-1.795 -14.082)" fill="#efefef"/>
            <path id="Path_63977" data-name="Path 63977" d="M7.595,139.109a97.535,97.535,0,0,0-5.936,15.474A48.24,48.24,0,0,0,.049,169.6,58.7,58.7,0,0,0,8.11,196.89a59.468,59.468,0,0,0,46.434,28.96c12.073.921,25.287-1.77,35.479-8.511.516-.341-.711-.22-.951-.061-9.454,6.252-21.614,8.788-32.822,8.107A58.421,58.421,0,0,1,29.1,216.772a59.26,59.26,0,0,1-27.637-44.7,49.1,49.1,0,0,1,1.1-16.521A93.282,93.282,0,0,1,8.813,138.9c.1-.215-1.063-.12-1.218.207" transform="translate(0 -103.372)" fill="#6a79a8"/>
            <path id="Path_63978" data-name="Path 63978" d="M359.566,447.627,376.931,468.5,400.884,497.3c.711.854,1.4,1.729,2.134,2.566,3.036,3.477,8.759,2.6,10.963-1.342.1-.187-1.038-.114-1.218.208-2.063,3.692-6.341,3.379-8.828.415-.794-.947-1.581-1.9-2.371-2.85l-9.907-11.91L366.683,454.36l-5.958-7.163c-.2-.243-1.367.178-1.159.429" transform="translate(-267.796 -333.03)" fill="#6a79a8"/>
            <path id="Path_63979" data-name="Path 63979" d="M137.334,74.713a45.3,45.3,0,0,1,42.483-2.261,46.038,46.038,0,0,1,26.336,45.909c-.017.194,1.2.057,1.232-.33A46.267,46.267,0,0,0,160.93,67.639a47.936,47.936,0,0,0-24.546,7.012c-.523.317.708.209.951.062" transform="translate(-101.486 -50.379)" fill="#6a79a8"/>
            <path id="Path_63980" data-name="Path 63980" d="M158.145,164.217a5.881,5.881,0,0,0,.76-8.282l-44.471-53.46a58.773,58.773,0,1,0-12.067,9.067l2.781-1.839,44.715,53.754a5.881,5.881,0,0,0,8.282.76m-38.831-99.6a46.079,46.079,0,1,1-41.674-50.1,46.132,46.132,0,0,1,41.674,50.1" transform="translate(-10.91 -1.213)" fill="#fff"/>
            <path id="Path_63981" data-name="Path 63981" d="M156.855,163.159a6.322,6.322,0,0,0,.62-8.937c-.736-.9-1.487-1.788-2.23-2.681l-10.078-12.115L119.4,108.453,113.2,101l-.058.417a58.955,58.955,0,0,0,11.4-69.185,59.395,59.395,0,1,0-65.527,84.843,59.916,59.916,0,0,0,40.5-5.694c1.475-.788,2.84-1.72,4.234-2.642l-.967.013,17.19,20.664,24.623,29.6c.909,1.093,1.811,2.193,2.728,3.28a6.731,6.731,0,0,0,9.422.956c.658-.515-.35-.849-.8-.5-2.633,2.06-5.723,1.141-7.7-1.237l-2.559-3.076-10.37-12.466-25.364-30.491-6.036-7.256c-.228-.274-.72-.151-.967.013-20.472,13.538-48.1,11.9-67.243-3.254A58.364,58.364,0,0,1,60.975,1.789a58.418,58.418,0,0,1,57.38,92.2,60.226,60.226,0,0,1-6.228,7.116.314.314,0,0,0-.058.417l16.188,19.46L152.6,150.25l3.341,4.016c.192.231.391.458.577.694a5.663,5.663,0,0,1-.682,7.889c-.557.5.647.64,1.017.31" transform="translate(-9.112 0)" fill="#6a79a8"/>
            <path id="Path_63982" data-name="Path 63982" d="M154.164,100.729a45.339,45.339,0,0,1-82.83,21.3,45.5,45.5,0,0,1,50.773-69.227,45.731,45.731,0,0,1,32.057,47.922c-.052.591,1.2.4,1.243-.114a46.77,46.77,0,1,0-41.247,42.036,46.6,46.6,0,0,0,41.247-42.036c.056-.59-1.194-.4-1.243.114" transform="translate(-46.381 -37.264)" fill="#6a79a8"/>
            <g id="Group_41016" data-name="Group 41016" transform="translate(16.437 13.114)" opacity="0.5">
              <g id="Group_41015" data-name="Group 41015">
                <g id="Group_41014" data-name="Group 41014" clip-path="url(#clip-path-4)">
                  <path id="Path_63983" data-name="Path 63983" d="M114.707,51.589a46.079,46.079,0,1,0,41.674,50.1,46.131,46.131,0,0,0-41.674-50.1" transform="translate(-64.414 -51.394)" fill="#fff"/>
                </g>
              </g>
            </g>
            <path id="Path_63984" data-name="Path 63984" d="M113.357,50.142A47.439,47.439,0,0,0,66.809,76.4,46.72,46.72,0,1,0,120.5,51.351a48.285,48.285,0,0,0-7.144-1.21c-.518-.05-1.292.685-.462.765a45.786,45.786,0,0,1,22.016,83.04,45.583,45.583,0,0,1-52.745-.695A46.293,46.293,0,0,1,65.2,83.775a45.83,45.83,0,0,1,40.4-32.956,46.322,46.322,0,0,1,7.3.088c.517.045,1.293-.692.462-.765" transform="translate(-46.396 -37.215)" fill="#6a79a8"/>
            <path id="Path_63985" data-name="Path 63985" d="M213.2,257.891a21.528,21.528,0,0,0-10.151-6.5,22.69,22.69,0,0,0-18.811,2.9,18.148,18.148,0,0,0-3.6,2.938c-.508.565.678.683,1.016.307a20.12,20.12,0,0,1,9.538-5.514,20.682,20.682,0,0,1,17.939,3.674,17.288,17.288,0,0,1,2.931,2.714c.323.394,1.5-.072,1.134-.522" transform="translate(-134.456 -186.568)" fill="#6a79a8"/>
            <path id="Path_63986" data-name="Path 63986" d="M177.089,199.739a2.308,2.308,0,1,0-2.319,2.3,2.309,2.309,0,0,0,2.319-2.3" transform="translate(-128.462 -147.044)" fill="#6a79a8"/>
            <path id="Path_63987" data-name="Path 63987" d="M301.185,200.42a2.308,2.308,0,1,0-2.319,2.3,2.309,2.309,0,0,0,2.319-2.3" transform="translate(-220.892 -147.551)" fill="#6a79a8"/>
            <path id="Path_63988" data-name="Path 63988" d="M142.994,234.3c.027,2.463-1.449,4.476-3.3,4.5s-3.367-1.961-3.393-4.424,1.449-4.476,3.3-4.5,3.367,1.96,3.393,4.424" transform="translate(-101.523 -171.219)" fill="#ff9c81"/>
            <path id="Path_63989" data-name="Path 63989" d="M330.891,232.266c.027,2.463-1.449,4.476-3.3,4.5s-3.366-1.961-3.393-4.424,1.449-4.476,3.3-4.5,3.366,1.961,3.393,4.424" transform="translate(-241.473 -169.703)" fill="#ff9c81"/>
          </g>
        </g>
      </g>
    </g>
  </g>
</svg>
