<svg xmlns="http://www.w3.org/2000/svg" xmlns:xlink="http://www.w3.org/1999/xlink" width="278" height="250" viewBox="0 0 278 250">
  <defs>
    <clipPath id="clip-path">
      <rect id="Rectangle_20619" data-name="Rectangle 20619" width="278" height="250" transform="translate(-0.215 0)" fill="none"/>
    </clipPath>
  </defs>
  <g id="Group_168196" data-name="Group 168196" transform="translate(-544 -148)">
    <g id="Group_166590" data-name="Group 166590" transform="translate(544.215 148)">
      <g id="Group_40992" data-name="Group 40992" transform="translate(0 0)" clip-path="url(#clip-path)">
        <path id="Path_63934" data-name="Path 63934" d="M71.91,246.7C66,245.421-4.949,233.915.274,149.054S12.053,38.672,39.638,29.335,134.279-24.183,186.9,17.826,296.3,97.513,273.765,164.59s-26.221,89.451-85.009,86.028S99.99,252.773,71.91,246.7" transform="translate(0 -0.836)" fill="#e9f0fe"/>
        <path id="Path_63935" data-name="Path 63935" d="M351.83,114.592h77.137c.376-7.4-3.3-14.81-9.858-18.254a19.988,19.988,0,0,0-20.969,1.805c-5.258-4.532-10.721-9.18-17.355-11.222s-14.808-.779-18.9,4.825c-2.83,3.872-3.218,9.168-1.829,13.759q-9.013-.07-18.017.424c-3.422.188-8.086,1.184-8.256,4.607-.256,5.131,18.053,4.056,18.053,4.056" transform="translate(-240.706 -62.859)" fill="#fff" opacity="0.442"/>
        <path id="Path_63936" data-name="Path 63936" d="M146.917,292.577a6.617,6.617,0,0,0-4.619-.532c-.946.215-1.858.553-2.784.837-1.763.542-1.917,1-2.635-.531-.785-1.675.177-3.395-1.36-5.142a5.873,5.873,0,0,0-6.152-1.726A21.726,21.726,0,0,0,124.646,278c-4.4-4.234-11.125-6-16.869-3.628a17.936,17.936,0,0,0-6.649,4.927,21.718,21.718,0,0,0-2.491,3.571c-.643,1.151-.927,2.65-1.7,3.693-1.7-.639-3.263-1.482-5.032-1.97-3.466-.956-7.235-1.143-10.268,1.113A8.179,8.179,0,0,0,78.372,294c.456,1.754,1.288,3.052,3.067,3.077,2.515.036,5.034,0,7.549,0h62.327a13.348,13.348,0,0,0-4.4-4.5" transform="translate(-56.366 -197.937)" fill="#fff" opacity="0.442"/>
        <path id="Path_63937" data-name="Path 63937" d="M736.28,336.153a13.667,13.667,0,0,1,3.93-12.119c3.986-3.83,10.066-5.43,15.263-3.282a16.228,16.228,0,0,1,6.016,4.459,19.609,19.609,0,0,1,2.254,3.232,30.348,30.348,0,0,0,1.54,3.342c1.536-.578,2.953-1.341,4.554-1.783,3.136-.865,6.547-1.034,9.293,1.008a7.379,7.379,0,0,1,2.922,7.62c-.282,1-1.019,2.644-2.145,2.739-.326.028-.668,0-1,0H741.105c-.569,0-1.138,0-1.707,0-.667,0-.752-.125-1.148-.663a11.16,11.16,0,0,1-1.97-4.552" transform="translate(-530.822 -231.457)" fill="#fff" opacity="0.442"/>
      </g>
    </g>
    <g id="Group_168195" data-name="Group 168195">
      <g id="Group_166591" data-name="Group 166591" transform="translate(572.2 213.01)">
        <g id="Group_41029" data-name="Group 41029" transform="translate(15.799 19.603)">
          <path id="Path_64063" data-name="Path 64063" d="M64.018,454.175c-11.767-3.175,51.229-6.771,72.191-6.326,26.366.56,109.939,1.948,113.75,4.07,9.993,5.575-84.823,6.015-96.452,5.845-19.386-.283-71.388,1.3-89.489-3.589" transform="translate(-61.85 -351.018)" fill="#e5e5e5"/>
          <path id="Path_64064" data-name="Path 64064" d="M240.1,442.883H70.988a8.4,8.4,0,0,1-8.394-8.394v-.5a.492.492,0,0,1,.492-.492H248.014a.492.492,0,0,1,.492.492v.493a8.414,8.414,0,0,1-8.405,8.405" transform="translate(-61.871 -340.409)" fill="#f2f2f2"/>
          <path id="Path_64065" data-name="Path 64065" d="M238.284,441.548H70.373a14.368,14.368,0,0,1-2.493-.113,8.268,8.268,0,0,1-6.541-6.353,14.225,14.225,0,0,0-.189-1.906c-.027-.068-.19-.534-.369-.378.026-.023.122.01.155,0a8.332,8.332,0,0,1,2.126,0H243.488a6.581,6.581,0,0,1,2.066,0c.647.3.17,2.117.031,2.7a7.753,7.753,0,0,1-7.3,6.047c-.422.009-1.342.657-.506.639a9.7,9.7,0,0,0,7.119-3.164,8.654,8.654,0,0,0,1.932-3.7c.156-.657.652-2.594-.133-3.059a3.9,3.9,0,0,0-1.648-.1H63.6c-.718,0-1.45-.042-2.167,0a1.677,1.677,0,0,0-1.419.571c-.514.855.027,2.687.3,3.529a8.621,8.621,0,0,0,2.206,3.5c2.763,2.655,6.189,2.429,9.656,2.429h165.6c.425,0,1.343-.639.506-.639" transform="translate(-59.802 -339.394)" fill="#6a79a8"/>
          <path id="Path_64066" data-name="Path 64066" d="M278.488,168.162V78.433a2.962,2.962,0,0,0-2.953-2.954H127.77a2.962,2.962,0,0,0-2.953,2.954v89.729Z" transform="translate(-107.973 -75.146)" fill="#e5e5e5"/>
          <path id="Path_64067" data-name="Path 64067" d="M126.077,74.338c-1.991.116-3.747,1.311-3.839,3.435-.012.29,0,.584,0,.875v86.833a4.511,4.511,0,0,0,0,1.317.558.558,0,0,1,0,.166c0,.277,1.251.077,1.251-.335V87.642c0-3.376-.172-6.8,0-10.176a2.421,2.421,0,0,1,2.068-2.541c.384-.022,1.348-.636.519-.587" transform="translate(-106.02 -74.299)" fill="#6a79a8"/>
          <path id="Path_64068" data-name="Path 64068" d="M288.488,168.162V78.433a2.962,2.962,0,0,0-2.953-2.954H137.77a2.962,2.962,0,0,0-2.953,2.954v89.729Z" transform="translate(-115.383 -75.146)" fill="#fff"/>
          <path id="Path_64069" data-name="Path 64069" d="M287.167,167.043V79.38c0-.686.036-1.382,0-2.067-.114-2.183-1.89-3.092-3.823-3.1-7.79-.039-15.582,0-23.372,0H138.959c-2.665,0-6.539-.319-6.714,3.441-.124,2.668,0,5.371,0,8.041v81.684c0,.14.295.148.372.148H267.39c6.2,0,12.45.236,18.646,0,.084,0,.169,0,.253,0,.42,0,1.345-.631.508-.631H135.464a11.819,11.819,0,0,0-2.087,0,1.441,1.441,0,0,1-.253,0l.372.148V79.92c0-.853-.046-1.719,0-2.571a2.528,2.528,0,0,1,2.755-2.506H280.13c2.335,0,5.633-.543,5.786,2.869.131,2.913,0,5.862,0,8.777v80.889c0,.316,1.251.1,1.251-.335" transform="translate(-113.436 -74.195)" fill="#6a79a8"/>
          <path id="Path_64070" data-name="Path 64070" d="M250.1,442.883H80.988a8.4,8.4,0,0,1-8.394-8.394v-.5a.492.492,0,0,1,.492-.492H258.014a.492.492,0,0,1,.492.492v.493a8.414,8.414,0,0,1-8.405,8.405" transform="translate(-69.28 -340.409)" fill="#fff"/>
          <path id="Path_64071" data-name="Path 64071" d="M248.5,441.786H80.585a14.966,14.966,0,0,1-2.523-.109A8.356,8.356,0,0,1,71.48,435.6c-.182-.7-.119-1.428-.27-2.116-.018-.083.048-.3,0-.373,0,0-.538-.2-.538-.2s.01,0,.011,0,.125.006.143,0a8.3,8.3,0,0,1,2.08,0H253.331a7.985,7.985,0,0,1,2.112,0c.776.256.394,1.846.28,2.444a7.775,7.775,0,0,1-7.227,6.434c-.266.006-1.411.525-.811.512a9.952,9.952,0,0,0,7.03-2.89,8.586,8.586,0,0,0,2.079-3.594c.19-.672.792-2.794.047-3.308-.358-.247-1.19-.11-1.581-.11H73.812c-.72,0-1.447-.028-2.167,0a2.2,2.2,0,0,0-1.384.37c-.742.658-.207,2.55.015,3.334a8.535,8.535,0,0,0,2.062,3.572c2.733,2.845,6.216,2.626,9.749,2.626h165.6c.268,0,1.416-.512.811-.512" transform="translate(-67.27 -339.569)" fill="#6a79a8"/>
          <path id="Path_64072" data-name="Path 64072" d="M346.494,432.84c.656,2.873,3.4,2.607,5.672,2.607h31.7c2.516,0,5.885.316,6.615-2.879.042-.184-.246-.168-.353-.168H347.385c-.366,0-1.359.545-.531.545h42.737l-.353-.168c-.613,2.683-3.219,2.126-5.294,2.126H354.038c-2.326,0-5.6.63-6.293-2.4-.069-.3-1.326.009-1.251.335" transform="translate(-272.218 -339.586)" fill="#6a79a8"/>
          <rect id="Rectangle_20641" data-name="Rectangle 20641" width="139.379" height="81.301" transform="translate(25.285 7.463)" fill="#fff"/>
          <rect id="Rectangle_20642" data-name="Rectangle 20642" width="2.591" height="81.301" transform="translate(162.074 7.463)" fill="#e5e5e5"/>
          <path id="Path_64073" data-name="Path 64073" d="M682.963,104.852v79.74c0,.608,1.262.389,1.262-.117v-79.74c0-.608-1.262-.389-1.262.118" transform="translate(-521.52 -96.55)" fill="#6a79a8"/>
          <path id="Path_64074" data-name="Path 64074" d="M295.4,101.868H173.193c-5.638,0-11.3-.144-16.933,0-.08,0-.16,0-.24,0-.215,0-1.033.1-1.033.415v81.3c0,.071.194.079.218.079H277.409c5.638,0,11.3.144,16.933,0,.08,0,.16,0,.24,0,.215,0,1.033-.1,1.033-.415v-81.3c0-.181-1.251-.011-1.251.336v81.3l1.034-.415H158.146c-.544,0-1.091-.019-1.634,0a1.407,1.407,0,0,1-.4,0c-.224-.072.142.171.126.057a33.2,33.2,0,0,1,0-4.382v-76.9l-1.033.415H277.409c5.638,0,11.3.144,16.933,0,.08,0,.16,0,.24,0,.257,0,1.411-.494.816-.494" transform="translate(-130.327 -94.651)" fill="#6a79a8"/>
        </g>
      </g>
      <g id="Group_168194" data-name="Group 168194">
        <g id="Group_166598" data-name="Group 166598" transform="translate(10.638)">
          <path id="Path_64237" data-name="Path 64237" d="M121.853,166.075h36.62c.459,0,1.271-.576.463-.576h-36.62c-.459,0-1.27.576-.463.576" transform="translate(530.971 118.094)" fill="#516799"/>
          <path id="Path_64238" data-name="Path 64238" d="M103.807,193.362h57.37c.571,0,.765-.735.087-.735h-57.37c-.571,0-.765.735-.087.735" transform="translate(539.996 107.073)" fill="#516799"/>
          <path id="Path_64239" data-name="Path 64239" d="M103.667,182.446h57.37c.445,0,1.033-.667.361-.667h-57.37c-.445,0-1.033.667-.361.667" transform="translate(540 109.88)" fill="#516799"/>
          <path id="Path_64240" data-name="Path 64240" d="M103.8,204.253h28.9c.565,0,.771-.717.092-.717H103.9c-.565,0-.771.717-.092.717" transform="translate(539.996 104.25)" fill="#516799"/>
        </g>
        <g id="Group_166599" data-name="Group 166599" transform="translate(20.219 -5)">
          <path id="Path_63985" data-name="Path 63985" d="M205.278,256.1a16.308,16.308,0,0,0-7.689-4.924,17.188,17.188,0,0,0-14.25,2.2,13.748,13.748,0,0,0-2.725,2.226c-.385.428.513.517.77.233a15.242,15.242,0,0,1,7.225-4.177,15.667,15.667,0,0,1,13.589,2.783,13.1,13.1,0,0,1,2.221,2.056c.245.3,1.138-.054.859-.4" transform="translate(469.809 23.104)" fill="#6a79a8"/>
          <path id="Path_63986" data-name="Path 63986" d="M175.969,199.177a1.749,1.749,0,1,0-1.757,1.74,1.749,1.749,0,0,0,1.757-1.74" transform="translate(476.301 65.912)" fill="#6a79a8"/>
          <path id="Path_63987" data-name="Path 63987" d="M300.065,199.858a1.749,1.749,0,1,0-1.757,1.74,1.749,1.749,0,0,0,1.757-1.74" transform="translate(376.192 65.363)" fill="#6a79a8"/>
          <path id="Path_63988" data-name="Path 63988" d="M141.372,233.228c.02,1.866-1.1,3.391-2.5,3.406s-2.55-1.485-2.57-3.351,1.1-3.391,2.5-3.406,2.55,1.485,2.57,3.351" transform="translate(505.478 39.729)" fill="#ff9c81"/>
          <path id="Path_63989" data-name="Path 63989" d="M329.269,231.193c.02,1.866-1.1,3.391-2.5,3.406s-2.55-1.485-2.57-3.351,1.1-3.391,2.5-3.406,2.55,1.485,2.57,3.351" transform="translate(353.901 41.371)" fill="#ff9c81"/>
        </g>
      </g>
    </g>
  </g>
</svg>
