<svg xmlns="http://www.w3.org/2000/svg" xmlns:xlink="http://www.w3.org/1999/xlink" width="278" height="250" viewBox="0 0 278 250">
  <defs>
    <clipPath id="clip-path">
      <rect id="Rectangle_20619" data-name="Rectangle 20619" width="278" height="250" transform="translate(-0.215 0)" fill="none"/>
    </clipPath>
  </defs>
  <g id="Group_168189" data-name="Group 168189" transform="translate(-544 -148)">
    <g id="Group_166586" data-name="Group 166586" transform="translate(544.215 148)">
      <g id="Group_40992" data-name="Group 40992" transform="translate(0 0)" clip-path="url(#clip-path)">
        <path id="Path_63934" data-name="Path 63934" d="M71.91,246.7C66,245.421-4.949,233.915.274,149.054S12.053,38.672,39.638,29.335,134.279-24.183,186.9,17.826,296.3,97.513,273.765,164.59s-26.221,89.451-85.009,86.028S99.99,252.773,71.91,246.7" transform="translate(0 -0.836)" fill="#e9f0fe"/>
        <path id="Path_63935" data-name="Path 63935" d="M351.83,114.592h77.137c.376-7.4-3.3-14.81-9.858-18.254a19.988,19.988,0,0,0-20.969,1.805c-5.258-4.532-10.721-9.18-17.355-11.222s-14.808-.779-18.9,4.825c-2.83,3.872-3.218,9.168-1.829,13.759q-9.013-.07-18.017.424c-3.422.188-8.086,1.184-8.256,4.607-.256,5.131,18.053,4.056,18.053,4.056" transform="translate(-240.706 -62.859)" fill="#fff" opacity="0.442"/>
        <path id="Path_63936" data-name="Path 63936" d="M146.917,292.577a6.617,6.617,0,0,0-4.619-.532c-.946.215-1.858.553-2.784.837-1.763.542-1.917,1-2.635-.531-.785-1.675.177-3.395-1.36-5.142a5.873,5.873,0,0,0-6.152-1.726A21.726,21.726,0,0,0,124.646,278c-4.4-4.234-11.125-6-16.869-3.628a17.936,17.936,0,0,0-6.649,4.927,21.718,21.718,0,0,0-2.491,3.571c-.643,1.151-.927,2.65-1.7,3.693-1.7-.639-3.263-1.482-5.032-1.97-3.466-.956-7.235-1.143-10.268,1.113A8.179,8.179,0,0,0,78.372,294c.456,1.754,1.288,3.052,3.067,3.077,2.515.036,5.034,0,7.549,0h62.327a13.348,13.348,0,0,0-4.4-4.5" transform="translate(-56.366 -197.937)" fill="#fff" opacity="0.442"/>
        <path id="Path_63937" data-name="Path 63937" d="M736.28,336.153a13.667,13.667,0,0,1,3.93-12.119c3.986-3.83,10.066-5.43,15.263-3.282a16.228,16.228,0,0,1,6.016,4.459,19.609,19.609,0,0,1,2.254,3.232,30.348,30.348,0,0,0,1.54,3.342c1.536-.578,2.953-1.341,4.554-1.783,3.136-.865,6.547-1.034,9.293,1.008a7.379,7.379,0,0,1,2.922,7.62c-.282,1-1.019,2.644-2.145,2.739-.326.028-.668,0-1,0H741.105c-.569,0-1.138,0-1.707,0-.667,0-.752-.125-1.148-.663a11.16,11.16,0,0,1-1.97-4.552" transform="translate(-530.822 -231.457)" fill="#fff" opacity="0.442"/>
      </g>
    </g>
    <g id="Group_166596" data-name="Group 166596" transform="translate(5323.854 -16411)">
      <rect id="Rectangle_20662" data-name="Rectangle 20662" width="107.267" height="104.46" transform="translate(-4694.924 16665.438)" fill="#fff"/>
      <path id="Path_64183" data-name="Path 64183" d="M30.783,68.328h99.724a4,4,0,0,1,4,4v85.427a4,4,0,0,1-4,4H30.783a4,4,0,0,1-4-4V72.328a4,4,0,0,1,4-4" transform="translate(-4721.707 16609.078)" fill="#f7f8f8"/>
      <rect id="Rectangle_20663" data-name="Rectangle 20663" width="103.403" height="93.427" transform="translate(-4694.776 16677.406)" fill="#fff"/>
      <rect id="Rectangle_20664" data-name="Rectangle 20664" width="107.029" height="11.921" transform="translate(-4694.805 16665.486)" fill="#f6f6f7"/>
      <path id="Path_64184" data-name="Path 64184" d="M130.232,65.52H25.489V56.028h98.44a6.261,6.261,0,0,1,6.3,6.215Z" transform="translate(-4721.707 16609.078)" fill="#ecebeb"/>
      <path id="Path_64185" data-name="Path 64185" d="M134.958,65.1H27.221a5.9,5.9,0,0,0-1.478,0,.739.739,0,0,1-.188,0l.547.366V53.55l-.661.465h107.74a5.9,5.9,0,0,0,1.479,0,.739.739,0,0,1,.188,0l-.547-.366V65.568c0,.6,1.208.409,1.208-.1V53.55c0-.3-.292-.366-.547-.366H30.042c-1.416,0-2.887-.114-4.3,0h-.188c-.224,0-.661.2-.661.465V65.568c0,.3.292.366.547.366H130.358c1.416,0,2.887.114,4.3,0h.188c.67,0,.928-.831.115-.831" transform="translate(-4721.707 16609.078)" fill="#516799"/>
      <path id="Path_64186" data-name="Path 64186" d="M35.008,59.562a2.117,2.117,0,1,0-2.127,2.107h.01A2.113,2.113,0,0,0,35.008,59.562Z" transform="translate(-4721.707 16609.078)" fill="#fff"/>
      <path id="Path_64187" data-name="Path 64187" d="M41.36,59.562a2.117,2.117,0,1,0-2.127,2.107h.01A2.113,2.113,0,0,0,41.36,59.562Z" transform="translate(-4721.707 16609.078)" fill="#fff"/>
      <path id="Path_64188" data-name="Path 64188" d="M47.97,59.562a2.117,2.117,0,1,0-2.127,2.107h.01A2.113,2.113,0,0,0,47.97,59.562Z" transform="translate(-4721.707 16609.078)" fill="#fff"/>
      <path id="Path_64189" data-name="Path 64189" d="M34.876,59.4c-.175-3.228-5.4-2.784-5.413.276-.013,3.263,5.248,2.83,5.412-.2.025-.457-1.156-.218-1.177.157-.047.878-.589,1.869-1.619,1.671a1.91,1.91,0,0,1-1.426-1.868c0-.948.731-1.916,1.762-1.578A1.965,1.965,0,0,1,33.7,59.716c.019.353,1.2.12,1.179-.316" transform="translate(-4721.707 16609.078)" fill="#d3dadf"/>
      <path id="Path_64190" data-name="Path 64190" d="M41.227,59.4c-.175-3.234-5.4-2.8-5.413.275-.01,3.27,5.248,2.847,5.413-.192.026-.472-1.157-.237-1.178.151-.048.879-.592,1.86-1.62,1.666a1.9,1.9,0,0,1-1.423-1.858c0-.947.736-1.9,1.764-1.572a1.953,1.953,0,0,1,1.279,1.847c.02.369,1.2.132,1.179-.316" transform="translate(-4721.707 16609.078)" fill="#d3dadf"/>
      <path id="Path_64191" data-name="Path 64191" d="M47.827,59.4c-.176-3.246-5.41-2.821-5.414.272,0,3.282,5.249,2.874,5.415-.185.027-.5-1.158-.267-1.181.142-.047.864-.6,1.872-1.622,1.659a1.883,1.883,0,0,1-1.419-1.844c0-.951.743-1.885,1.766-1.565a1.932,1.932,0,0,1,1.276,1.837c.021.394,1.2.15,1.179-.316" transform="translate(-4721.707 16609.078)" fill="#d3dadf"/>
      <path id="Path_64192" data-name="Path 64192" d="M35.6,59.4c-.178-3.289-5.431-2.914-5.416.263.016,3.326,5.252,2.985,5.422-.158.031-.578-1.164-.388-1.19.106-.046.845-.576,1.736-1.542,1.639a1.782,1.782,0,0,1-1.493-1.8,1.465,1.465,0,0,1,1.357-1.565,1.431,1.431,0,0,1,.327.013,1.84,1.84,0,0,1,1.356,1.816c.027.49,1.208.222,1.179-.316" transform="translate(-4721.707 16609.078)" fill="#516799"/>
      <path id="Path_64193" data-name="Path 64193" d="M41.949,59.4c-.173-3.2-5.431-2.671-5.414.316.019,3.237,5.254,2.632,5.414-.316.011-.2-1.159-.052-1.179.316-.056,1.042-.911,2.1-2.042,1.455A2.05,2.05,0,0,1,37.715,59.4c0-.973.832-2,1.879-1.529a2.053,2.053,0,0,1,1.177,1.845c.013.237,1.2.033,1.179-.316" transform="translate(-4721.707 16609.078)" fill="#516799"/>
      <path id="Path_64194" data-name="Path 64194" d="M48.562,59.514c-.18-3.328-5.376-3.156-5.428.1-.054,3.368,5.254,3.114,5.428-.1.032-.6-1.165-.426-1.193.1-.046.842-.579,1.725-1.545,1.627a1.768,1.768,0,0,1-1.5-1.721,1.53,1.53,0,0,1,1.39-1.625,1.741,1.741,0,0,1,1.651,1.72c.033.608,1.221.417,1.193-.1" transform="translate(-4721.707 16609.078)" fill="#516799"/>
      <path id="Path_64198" data-name="Path 64198" d="M7.759,85.31A32.54,32.54,0,0,0,26,101.854c.337.122,1.407-.383.944-.55a32.111,32.111,0,0,1-18-16.31c-.183-.385-1.333-.008-1.179.316" transform="translate(-4721.707 16609.078)" fill="#516799"/>
      <path id="Path_64199" data-name="Path 64199" d="M148.31,121.325a32.112,32.112,0,0,1-12.621-20.731c-.07-.44-1.255-.157-1.179.316a32.563,32.563,0,0,0,12.87,21.017c.339.249,1.417-.244.93-.6" transform="translate(-4721.707 16609.078)" fill="#516799"/>
      <path id="Path_64200" data-name="Path 64200" d="M68.02,36.131,9.1,44.165a4.212,4.212,0,0,1-4.742-3.6L.638,13.265a4.211,4.211,0,0,1,3.6-4.741L63.159.482a4.212,4.212,0,0,1,4.742,3.6l3.723,27.3a4.211,4.211,0,0,1-3.6,4.742" transform="translate(-4721.707 16609.078)" fill="#e46e5c"/>
      <path id="Path_64201" data-name="Path 64201" d="M64.5,36.276,10.158,43.687a4.211,4.211,0,0,1-4.742-3.6L2.285,17.115a4.211,4.211,0,0,1,3.6-4.742l54.35-7.408a4.211,4.211,0,0,1,4.742,3.6l3.132,22.966a4.211,4.211,0,0,1-3.6,4.742" transform="translate(-4721.707 16609.078)" fill="#f69885"/>
      <path id="Path_64202" data-name="Path 64202" d="M68.055,35.691,55.187,37.445l-25.634,3.5L10.569,43.53c-.457.062-.916.143-1.375.188a3.869,3.869,0,0,1-4.272-3.4c-.425-2.6-.714-5.232-1.07-7.844L2.11,19.7q-.33-2.418-.659-4.836a16.1,16.1,0,0,1-.275-2.326A3.723,3.723,0,0,1,4.437,8.882c.641-.1,1.286-.175,1.929-.263l8.116-1.1L39.628,4.083,60.419,1.248C62.257,1,64.34.4,65.919,1.713a4.991,4.991,0,0,1,1.509,3.5L68,9.425c.987,7.235,2.061,14.464,2.961,21.711.265,2.181-.757,4.181-3.068,4.581-.746.131-.519.916.211.787a4.829,4.829,0,0,0,4.086-5.3c-.081-.772-.21-1.542-.315-2.311L70.233,16.838,68.68,5.447a9.474,9.474,0,0,0-.6-2.821A4.775,4.775,0,0,0,63.128.05C58.013.608,52.911,1.444,47.812,2.139L20.965,5.8C15.481,6.548,9.988,7.242,4.512,8.044A5.238,5.238,0,0,0,.856,10.079a5.254,5.254,0,0,0-.734,4L1.515,24.3,3.254,37.049c.39,2.859.368,6.341,3.744,7.357,1.56.469,3.453-.032,5.029-.247l9.364-1.277,26.6-3.627,18.973-2.588.982-.134c.642-.088.913-.952.11-.843" transform="translate(-4721.707 16609.078)" fill="#516799"/>
      <path id="Path_64203" data-name="Path 64203" d="M10.841,20a5.893,5.893,0,0,1,3.013.25,4.51,4.51,0,0,1,2.134,1.673A6.729,6.729,0,0,1,17.06,24.8a7.34,7.34,0,0,1,0,2.348A5.038,5.038,0,0,1,16.3,29.1,4.529,4.529,0,0,1,14.8,30.51a6.691,6.691,0,0,1-4.572.676,4.585,4.585,0,0,1-1.862-.909,5.02,5.02,0,0,1-1.294-1.652,7.4,7.4,0,0,1-.689-2.23A7.123,7.123,0,0,1,6.4,24.037,5,5,0,0,1,7.172,22.1a4.564,4.564,0,0,1,1.5-1.376,6.059,6.059,0,0,1,2.171-.726m3.98,5.132a5.174,5.174,0,0,0-.7-2.015,2.918,2.918,0,0,0-1.3-1.16,3.067,3.067,0,0,0-1.714-.2,3.018,3.018,0,0,0-1.185.433,2.718,2.718,0,0,0-.857.87,3.5,3.5,0,0,0-.457,1.311,5.538,5.538,0,0,0,.016,1.7,5.7,5.7,0,0,0,.487,1.645,3.482,3.482,0,0,0,.849,1.145,2.8,2.8,0,0,0,1.092.592,3.132,3.132,0,0,0,2.745-.6,2.958,2.958,0,0,0,.931-1.476,5.124,5.124,0,0,0,.092-2.241" transform="translate(-4721.707 16609.078)" fill="#fff"/>
      <path id="Path_64204" data-name="Path 64204" d="M26.632,24.926a4.868,4.868,0,0,1-.031,1.715,3.736,3.736,0,0,1-.62,1.438,3.651,3.651,0,0,1-1.152,1.036,4.563,4.563,0,0,1-1.628.545,4.442,4.442,0,0,1-1.7-.048,3.7,3.7,0,0,1-2.418-1.846,4.84,4.84,0,0,1-.53-1.626,4.905,4.905,0,0,1,.029-1.73,3.71,3.71,0,0,1,.613-1.43,3.621,3.621,0,0,1,1.153-1.029,4.9,4.9,0,0,1,3.33-.5,3.636,3.636,0,0,1,2.424,1.84,4.871,4.871,0,0,1,.531,1.63m-2.037.306a3.085,3.085,0,0,0-.837-1.851,1.8,1.8,0,0,0-1.572-.47,1.838,1.838,0,0,0-1,.466,1.968,1.968,0,0,0-.562,1.015,4.182,4.182,0,0,0,.417,2.8,2.012,2.012,0,0,0,.828.807,1.814,1.814,0,0,0,1.107.156,1.79,1.79,0,0,0,1.363-.916,3.072,3.072,0,0,0,.257-2" transform="translate(-4721.707 16609.078)" fill="#fff"/>
      <path id="Path_64205" data-name="Path 64205" d="M35.826,23.543a4.868,4.868,0,0,1-.031,1.715,3.736,3.736,0,0,1-.62,1.438,3.651,3.651,0,0,1-1.152,1.036,4.563,4.563,0,0,1-1.628.545,4.442,4.442,0,0,1-1.7-.048,3.7,3.7,0,0,1-2.417-1.844,4.84,4.84,0,0,1-.53-1.626,4.905,4.905,0,0,1,.029-1.73,3.71,3.71,0,0,1,.613-1.43,3.621,3.621,0,0,1,1.153-1.029,4.9,4.9,0,0,1,3.33-.5A3.638,3.638,0,0,1,35.3,21.91a4.871,4.871,0,0,1,.531,1.63m-2.037.306A3.079,3.079,0,0,0,32.954,22a1.8,1.8,0,0,0-1.572-.47,1.838,1.838,0,0,0-1,.466,1.975,1.975,0,0,0-.562,1.016,4.176,4.176,0,0,0,.417,2.8,2.009,2.009,0,0,0,.828.806,1.932,1.932,0,0,0,2.47-.759,3.072,3.072,0,0,0,.257-2" transform="translate(-4721.707 16609.078)" fill="#fff"/>
      <path id="Path_64206" data-name="Path 64206" d="M38.847,20.033l.037.245a4.039,4.039,0,0,1,1.033-1.216,2.944,2.944,0,0,1,1.347-.541,3.266,3.266,0,0,1,1.8.224,3.367,3.367,0,0,1,1.457,1.225,4.983,4.983,0,0,1,.788,2.131,5.414,5.414,0,0,1,0,1.76,3.916,3.916,0,0,1-.527,1.425,3.2,3.2,0,0,1-.966.981,3.264,3.264,0,0,1-1.306.489,2.856,2.856,0,0,1-1.513-.13,4.22,4.22,0,0,1-1.28-.856l.458,3.047q.2,1.338-.772,1.484a.79.79,0,0,1-.81-.232,2.2,2.2,0,0,1-.337-.979l-1.317-8.755a1.3,1.3,0,0,1,.122-.9.886.886,0,0,1,.648-.39.923.923,0,0,1,.746.188,1.212,1.212,0,0,1,.4.8m4.42,2.352a3.537,3.537,0,0,0-.453-1.342A2.039,2.039,0,0,0,42,20.261a1.647,1.647,0,0,0-1.009-.164,1.825,1.825,0,0,0-1.316.874A2.923,2.923,0,0,0,39.4,23a2.847,2.847,0,0,0,.856,1.8,1.812,1.812,0,0,0,1.521.459,1.651,1.651,0,0,0,.892-.435,2.05,2.05,0,0,0,.559-.985,3.536,3.536,0,0,0,.047-1.459" transform="translate(-4721.707 16609.078)" fill="#fff"/>
      <path id="Path_64207" data-name="Path 64207" d="M53.692,22.361a2.379,2.379,0,0,1-1.264,2.588,5.459,5.459,0,0,1-1.9.6A4.791,4.791,0,0,1,48.6,25.5a2.763,2.763,0,0,1-1.278-.663,1.7,1.7,0,0,1-.523-.951.793.793,0,0,1,.152-.608.825.825,0,0,1,.566-.329.706.706,0,0,1,.514.083,1.727,1.727,0,0,1,.393.389,2.246,2.246,0,0,0,.869.7,2.285,2.285,0,0,0,1.226.089,1.734,1.734,0,0,0,.959-.421.771.771,0,0,0,.3-.68.853.853,0,0,0-.522-.719,5.067,5.067,0,0,0-1.4-.268,11.143,11.143,0,0,1-1.788-.29,2.837,2.837,0,0,1-1.166-.6,1.747,1.747,0,0,1-.567-1.093,2.054,2.054,0,0,1,.191-1.207,2.522,2.522,0,0,1,.944-1.028,4.16,4.16,0,0,1,1.665-.581,5.7,5.7,0,0,1,1.441-.049,3.58,3.58,0,0,1,1.114.281,2.2,2.2,0,0,1,.731.513,1.207,1.207,0,0,1,.318.621.763.763,0,0,1-.148.608.94.94,0,0,1-.632.323.824.824,0,0,1-.558-.1,3.548,3.548,0,0,1-.582-.46,1.845,1.845,0,0,0-.614-.394,1.728,1.728,0,0,0-.874-.051,1.672,1.672,0,0,0-.879.372.692.692,0,0,0-.277.638.639.639,0,0,0,.347.484,2.267,2.267,0,0,0,.772.23q.472.066,1.3.139a6.769,6.769,0,0,1,1.625.318,2.606,2.606,0,0,1,1.02.618,1.692,1.692,0,0,1,.458.946" transform="translate(-4721.707 16609.078)" fill="#fff"/>
      <path id="Path_64208" data-name="Path 64208" d="M56.394,24.662a1.17,1.17,0,0,1-.84-.178,1.066,1.066,0,0,1-.46-.782,1.092,1.092,0,0,1,.2-.828,1.065,1.065,0,0,1,.738-.446,1.115,1.115,0,0,1,.848.2,1.161,1.161,0,0,1,.243,1.613,1.133,1.133,0,0,1-.731.418" transform="translate(-4721.707 16609.078)" fill="#fff"/>
      <path id="Path_64209" data-name="Path 64209" d="M61.158,23.949a1.17,1.17,0,0,1-.84-.178,1.066,1.066,0,0,1-.46-.782,1.092,1.092,0,0,1,.2-.828,1.069,1.069,0,0,1,.739-.446,1.115,1.115,0,0,1,.848.2,1.161,1.161,0,0,1,.243,1.613,1.133,1.133,0,0,1-.731.418" transform="translate(-4721.707 16609.078)" fill="#fff"/>
      <path id="Path_64210" data-name="Path 64210" d="M65.923,23.233a1.169,1.169,0,0,1-.84-.177,1.066,1.066,0,0,1-.46-.782,1.092,1.092,0,0,1,.2-.828A1.067,1.067,0,0,1,65.561,21a1.115,1.115,0,0,1,.848.2,1.161,1.161,0,0,1,.243,1.613,1.131,1.131,0,0,1-.731.418" transform="translate(-4721.707 16609.078)" fill="#fff"/>
      <path id="Path_64211" data-name="Path 64211" d="M14.242,110.1Q12.622,97.987,11,85.878,8.422,66.657,5.85,47.435L4.667,38.607c-.056-.42-1.241-.148-1.179.316L6.731,63.14q2.576,19.223,5.149,38.443.592,4.415,1.183,8.828c.056.42,1.241.148,1.179-.316" transform="translate(-4721.707 16609.078)" fill="#516799"/>
      <path id="Path_64216" data-name="Path 64216" d="M128.736,163.869H31.318a6.8,6.8,0,0,1-6.8-6.8V53.369h111V157.083A6.786,6.786,0,0,1,128.736,163.869Z" transform="translate(-4721.707 16609.078)" fill="none" stroke="#516799" stroke-width="1"/>
      <rect id="Rectangle_20665" data-name="Rectangle 20665" width="161.707" height="168.923" transform="translate(-4721.707 16609.078)" fill="none"/>
      <g id="noun-server-error-496840" transform="translate(-4794.969 16663.262)">
        <path id="Path_64225" data-name="Path 64225" d="M182,112h1.679v1.679H182Z" transform="translate(-50.957 -67.95)" fill="#516799" stroke="#fff" stroke-width="0.7"/>
        <path id="Path_64226" data-name="Path 64226" d="M219.33,112h1.679v1.679H219.33Z" transform="translate(-82.768 -67.95)" fill="#516799" stroke="#fff" stroke-width="0.7"/>
        <path id="Path_64227" data-name="Path 64227" d="M256.67,112h1.679v1.679H256.67Z" transform="translate(-115.884 -67.95)" fill="#516799" stroke="#fff" stroke-width="0.7"/>
        <path id="Path_64228" data-name="Path 64228" d="M182,261.33h1.679v1.679H182Z" transform="translate(-50.957 -203.847)" fill="#516799" stroke="#fff" stroke-width="0.7"/>
        <path id="Path_64229" data-name="Path 64229" d="M219.33,261.33h1.679v1.679H219.33Z" transform="translate(-82.768 -203.847)" fill="#516799" stroke="#fff" stroke-width="0.7"/>
        <path id="Path_64230" data-name="Path 64230" d="M256.67,261.33h1.679v1.679H256.67Z" transform="translate(-115.884 -203.847)" fill="#516799" stroke="#fff" stroke-width="0.7"/>
        <path id="Path_64231" data-name="Path 64231" d="M176.3,67.558a3.118,3.118,0,0,0-1.444-2.519A3.114,3.114,0,0,0,176.3,62.52v-8.4a3.118,3.118,0,0,0-1.444-2.519,3.114,3.114,0,0,0,1.444-2.519v-8.4c0-1.854-1.878-3.358-4.191-3.358H130.2c-2.313,0-4.191,1.5-4.191,3.358v8.4a3.118,3.118,0,0,0,1.444,2.519,3.114,3.114,0,0,0-1.444,2.519v8.4a3.118,3.118,0,0,0,1.444,2.519,3.114,3.114,0,0,0-1.444,2.519v8.4c0,1.854,1.878,3.358,4.191,3.358H149.5l-2.544,3.358h35.622l-6.286-8.3Zm-2.1,0v4.05l-4.339-5.729h2.244a1.924,1.924,0,0,1,2.1,1.679Zm-46.1-18.47v-8.4a1.924,1.924,0,0,1,2.1-1.679h41.909a1.924,1.924,0,0,1,2.1,1.679v8.4a1.924,1.924,0,0,1-2.1,1.679H130.2A1.924,1.924,0,0,1,128.1,49.088Zm0,13.433v-8.4a1.924,1.924,0,0,1,2.1-1.679h41.909a1.924,1.924,0,0,1,2.1,1.679v8.4a1.924,1.924,0,0,1-2.1,1.679h-3.518l-3.816-5.037L160.956,64.2H130.2A1.924,1.924,0,0,1,128.1,62.52Zm2.1,15.112a1.924,1.924,0,0,1-2.1-1.679v-8.4a1.924,1.924,0,0,1,2.1-1.679h29.485l-8.906,11.754Zm20.487,3.358L164.772,62.4,178.86,80.991Z" fill="#516799" stroke="#fff" stroke-width="0.7"/>
        <path id="Path_64232" data-name="Path 64232" d="M182,410.67h1.679v1.679H182Z" transform="translate(-50.957 -339.754)" fill="#516799" stroke="#fff" stroke-width="0.7"/>
        <path id="Path_64233" data-name="Path 64233" d="M219.33,410.67h1.679v1.679H219.33Z" transform="translate(-82.768 -339.754)" fill="#516799" stroke="#fff" stroke-width="0.7"/>
        <path id="Path_64234" data-name="Path 64234" d="M256.67,410.67h1.679v1.679H256.67Z" transform="translate(-115.884 -339.754)" fill="#516799" stroke="#fff" stroke-width="0.7"/>
        <path id="Path_64235" data-name="Path 64235" d="M462,373.33h1.679v8.4H462Z" transform="translate(-297.988 -305.772)" fill="#516799" stroke="#fff" stroke-width="0.7"/>
        <path id="Path_64236" data-name="Path 64236" d="M462,485.33h1.679v1.679H462Z" transform="translate(-297.988 -407.698)" fill="#516799" stroke="#fff" stroke-width="0.7"/>
      </g>
    </g>
  </g>
</svg>
