<svg xmlns="http://www.w3.org/2000/svg" xmlns:xlink="http://www.w3.org/1999/xlink" width="102.337" height="102.125" viewBox="0 0 102.337 102.125">
  <defs>
    <clipPath id="clip-path">
      <rect id="Rectangle_149221" data-name="Rectangle 149221" width="85.989" height="85.989" fill="none"/>
    </clipPath>
  </defs>
  <g id="Group_184903" data-name="Group 184903" transform="translate(-711 -1411)">
    <g id="Group_184895" data-name="Group 184895" transform="translate(667.996 -0.125)">
      <path id="Path_86718" data-name="Path 86718" d="M58.369,41.021A51.179,51.179,0,0,1,30.9,96.932L8.207,51.066,11.487,0A51.186,51.186,0,0,1,58.369,41.021" transform="translate(85.965 1411.125)" fill="#ffd970"/>
      <path id="Path_86719" data-name="Path 86719" d="M28.479.834,51.169,46.7l-3.28,51.06A51.172,51.172,0,0,1,28.479.834" transform="translate(43.003 1415.492)" fill="#ffd970"/>
      <g id="Group_184886" data-name="Group 184886" transform="translate(51.176 1419.195)" opacity="0.3" style="mix-blend-mode: multiply;isolation: isolate">
        <g id="Group_184885" data-name="Group 184885">
          <g id="Group_184884" data-name="Group 184884" clip-path="url(#clip-path)">
            <path id="Path_86720" data-name="Path 86720" d="M1.311,44.292a42.994,42.994,0,1,0,43-43,42.993,42.993,0,0,0-43,43" transform="translate(-1.312 -1.295)"/>
          </g>
        </g>
      </g>
      <path id="Path_86721" data-name="Path 86721" d="M1.816,41.773a40,40,0,1,0,40-40,40,40,0,0,0-40,40" transform="translate(52.507 1420.418)" fill="#fff"/>
    </g>
    <g id="Table-1" transform="translate(746 1446)">
      <path id="Union_110" data-name="Union 110" d="M6.285,32.82a1.1,1.1,0,0,1-.72-.4,1.088,1.088,0,0,1-.349-.716.346.346,0,0,1,.119-.257l8.163-7.2H.854a.879.879,0,0,1-.2-1.727V2.841a.873.873,0,0,1,.257-1.7H14.662a1.391,1.391,0,0,1,2.735,0H31.146a.877.877,0,0,1,.056,1.75V22.5a.884.884,0,0,1,.689,1.051.894.894,0,0,1-.8.692h-12.5l3.048,2.689a.413.413,0,0,1,.108.093l5.012,4.416a.358.358,0,0,1,.119.257,1.1,1.1,0,0,1-.348.718,1.112,1.112,0,0,1-.723.406.373.373,0,0,1-.252-.088L20.9,28.62H11.194L6.537,32.731a.373.373,0,0,1-.245.089Zm6.9-5.946h5.723l-2.854-2.523ZM2.458,22.493H29.4V2.888H2.452Zm4.314-3.241a1.228,1.228,0,1,1,1.264-1.227,1.239,1.239,0,0,1-1.264,1.227Zm3.963-.26c-.309,0-.531-.37-.531-.884s.222-.882.531-.882H25.467c.3,0,.531.369.531.882s-.225.884-.531.884ZM5.53,12.771a1.254,1.254,0,0,1,2.506.01,1.253,1.253,0,0,1-2.506-.01Zm5.205.975c-.309,0-.531-.367-.531-.882s.222-.876.531-.876H25.467c.3,0,.531.367.531.876s-.225.882-.531.882ZM6.773,8.765a1.341,1.341,0,0,1-.287-.031,1.223,1.223,0,0,1-.949-1.461,1.168,1.168,0,0,1,.244-.5,1.277,1.277,0,0,1,.992-.466,1.458,1.458,0,0,1,.286.031,1.216,1.216,0,0,1,.7,1.961,1.275,1.275,0,0,1-.985.465ZM10.737,8.5c-.3,0-.533-.367-.533-.882s.224-.875.533-.875H25.467c.308,0,.532.367.532.875s-.224.882-.532.882Z" transform="translate(0)" fill="#14142b" stroke="rgba(0,0,0,0)" stroke-width="1"/>
    </g>
  </g>
</svg>
