<svg xmlns="http://www.w3.org/2000/svg" xmlns:xlink="http://www.w3.org/1999/xlink" width="102.337" height="102.125" viewBox="0 0 102.337 102.125">
  <defs>
    <clipPath id="clip-path">
      <rect id="Rectangle_149221" data-name="Rectangle 149221" width="85.989" height="85.989" fill="none"/>
    </clipPath>
  </defs>
  <g id="Group_184905" data-name="Group 184905" transform="translate(-43 -1491)">
    <g id="Group_184887" data-name="Group 184887" transform="translate(-0.004 79.875)">
      <path id="Path_86718" data-name="Path 86718" d="M58.369,41.021A51.179,51.179,0,0,1,30.9,96.932L8.207,51.066,11.487,0A51.186,51.186,0,0,1,58.369,41.021" transform="translate(85.965 1411.125)" fill="#ffd970"/>
      <path id="Path_86719" data-name="Path 86719" d="M28.479.834,51.169,46.7l-3.28,51.06A51.172,51.172,0,0,1,28.479.834" transform="translate(43.003 1415.492)" fill="#ffd970"/>
      <g id="Group_184886" data-name="Group 184886" transform="translate(51.176 1419.195)" opacity="0.3" style="mix-blend-mode: multiply;isolation: isolate">
        <g id="Group_184885" data-name="Group 184885">
          <g id="Group_184884" data-name="Group 184884" clip-path="url(#clip-path)">
            <path id="Path_86720" data-name="Path 86720" d="M1.311,44.292a42.994,42.994,0,1,0,43-43,42.993,42.993,0,0,0-43,43" transform="translate(-1.312 -1.295)"/>
          </g>
        </g>
      </g>
      <path id="Path_86721" data-name="Path 86721" d="M1.816,41.773a40,40,0,1,0,40-40,40,40,0,0,0-40,40" transform="translate(52.507 1420.418)" fill="#fff"/>
    </g>
    <g id="Document" transform="translate(78 1521)">
      <path id="Union_200" data-name="Union 200" d="M1.926,41.411A1.9,1.9,0,0,1,0,39.529V10.864H.025A1.856,1.856,0,0,1,.568,9.658L9.939.547A1.926,1.926,0,0,1,11.12.034V0H30.074A1.905,1.905,0,0,1,32,1.882V39.529a1.9,1.9,0,0,1-1.926,1.882Zm.193-2.07H29.881V2.07H13.239V12.936H2.119Zm.212-28.476H11.12V2.319ZM5.779,31.085a1.035,1.035,0,1,1,0-2.07h8.777a1.035,1.035,0,1,1,0,2.07Zm0-5.777a1.035,1.035,0,1,1,0-2.07h19.1a1.035,1.035,0,1,1,0,2.07Zm0-5.779a1.035,1.035,0,1,1,0-2.07h19.1a1.035,1.035,0,1,1,0,2.07Z" fill="#14142b" stroke="rgba(0,0,0,0)" stroke-width="1"/>
    </g>
  </g>
</svg>
