<svg xmlns="http://www.w3.org/2000/svg" xmlns:xlink="http://www.w3.org/1999/xlink" width="102.337" height="102.125" viewBox="0 0 102.337 102.125">
  <defs>
    <clipPath id="clip-path">
      <rect id="Rectangle_149221" data-name="Rectangle 149221" width="85.989" height="85.989" fill="none"/>
    </clipPath>
  </defs>
  <g id="Group_184901" data-name="Group 184901" transform="translate(-377 -1411)">
    <g id="Group_184891" data-name="Group 184891" transform="translate(333.996 -0.125)">
      <path id="Path_86718" data-name="Path 86718" d="M58.369,41.021A51.179,51.179,0,0,1,30.9,96.932L8.207,51.066,11.487,0A51.186,51.186,0,0,1,58.369,41.021" transform="translate(85.965 1411.125)" fill="#ffd970"/>
      <path id="Path_86719" data-name="Path 86719" d="M28.479.834,51.169,46.7l-3.28,51.06A51.172,51.172,0,0,1,28.479.834" transform="translate(43.003 1415.492)" fill="#ffd970"/>
      <g id="Group_184886" data-name="Group 184886" transform="translate(51.176 1419.195)" opacity="0.3" style="mix-blend-mode: multiply;isolation: isolate">
        <g id="Group_184885" data-name="Group 184885">
          <g id="Group_184884" data-name="Group 184884" clip-path="url(#clip-path)">
            <path id="Path_86720" data-name="Path 86720" d="M1.311,44.292a42.994,42.994,0,1,0,43-43,42.993,42.993,0,0,0-43,43" transform="translate(-1.312 -1.295)"/>
          </g>
        </g>
      </g>
      <path id="Path_86721" data-name="Path 86721" d="M1.816,41.773a40,40,0,1,0,40-40,40,40,0,0,0-40,40" transform="translate(52.507 1420.418)" fill="#fff"/>
    </g>
    <g id="contract" transform="translate(412 1446)">
      <path id="Union_168" data-name="Union 168" d="M1.7,32A1.707,1.707,0,0,1,0,30.294V7.177a.79.79,0,0,1,.23-.558L6.625.23A.782.782,0,0,1,7.181,0H23.5a2.036,2.036,0,0,1,1.827,1.976V4.483a.234.234,0,0,1-.066.2,1.016,1.016,0,0,1-.66.24c-.736-.017-.736-.294-.736-.476V1.461H8.042V6.089A2.008,2.008,0,0,1,6.235,8.065H1.458V30.539H23.864V20.955h-.307l.307-.007h-.288l.286-.01v-.02a.724.724,0,0,1,.72-.723h.047a.709.709,0,0,1,.692.706v9.123A2.048,2.048,0,0,1,23.5,32ZM2.39,6.6H6.583V2.4Zm2.5,19.681a.732.732,0,0,1,0-1.463H9.008a.732.732,0,0,1,0,1.463Zm11.972-6.468,1.328-5.325a.441.441,0,0,1,.124-.216l8.9-8.934a.465.465,0,0,1,.659,0l3.982,3.992a.469.469,0,0,1,0,.663l-8.9,8.934a.513.513,0,0,1-.218.121l-5.309,1.33a.482.482,0,0,1-.117.015A.469.469,0,0,1,16.867,19.814Zm1.721-1.725a.466.466,0,0,0,.565.565l2.17-.544-2.191-2.2Zm1.088-3.4,2.87,2.876,5.374-5.388L25.05,9.3Zm7.546-7.573L25.935,8.407,28.8,11.288l1.29-1.294a.472.472,0,0,0,0-.663L27.881,7.114a.466.466,0,0,0-.659,0ZM4.895,19.678a.732.732,0,0,1,0-1.463l7.353.007a.728.728,0,1,1,0,1.456Zm-.051-6.6a.731.731,0,0,1,0-1.461h9.874a.731.731,0,0,1,0,1.461Z" fill="#040504" stroke="rgba(0,0,0,0)" stroke-width="1"/>
    </g>
  </g>
</svg>
