<svg xmlns="http://www.w3.org/2000/svg" xmlns:xlink="http://www.w3.org/1999/xlink" width="102.337" height="102.125" viewBox="0 0 102.337 102.125">
  <defs>
    <clipPath id="clip-path">
      <rect id="Rectangle_149221" data-name="Rectangle 149221" width="85.989" height="85.989" fill="none"/>
    </clipPath>
  </defs>
  <g id="Group_184902" data-name="Group 184902" transform="translate(-544 -1411)">
    <g id="Group_184893" data-name="Group 184893" transform="translate(500.996 -0.125)">
      <path id="Path_86718" data-name="Path 86718" d="M58.369,41.021A51.179,51.179,0,0,1,30.9,96.932L8.207,51.066,11.487,0A51.186,51.186,0,0,1,58.369,41.021" transform="translate(85.965 1411.125)" fill="#ffd970"/>
      <path id="Path_86719" data-name="Path 86719" d="M28.479.834,51.169,46.7l-3.28,51.06A51.172,51.172,0,0,1,28.479.834" transform="translate(43.003 1415.492)" fill="#ffd970"/>
      <g id="Group_184886" data-name="Group 184886" transform="translate(51.176 1419.195)" opacity="0.3" style="mix-blend-mode: multiply;isolation: isolate">
        <g id="Group_184885" data-name="Group 184885">
          <g id="Group_184884" data-name="Group 184884" clip-path="url(#clip-path)">
            <path id="Path_86720" data-name="Path 86720" d="M1.311,44.292a42.994,42.994,0,1,0,43-43,42.993,42.993,0,0,0-43,43" transform="translate(-1.312 -1.295)"/>
          </g>
        </g>
      </g>
      <path id="Path_86721" data-name="Path 86721" d="M1.816,41.773a40,40,0,1,0,40-40,40,40,0,0,0-40,40" transform="translate(52.507 1420.418)" fill="#fff"/>
    </g>
    <g id="My-Approvals" transform="translate(579 1444)">
      <path id="app-myApprovals" d="M16.03,27.442a7.986,7.986,0,1,1,7.984,8.114A8.048,8.048,0,0,1,16.03,27.442Zm1.691,0a6.292,6.292,0,1,0,6.293-6.389A6.35,6.35,0,0,0,17.722,27.442ZM1.616,34.421A1.629,1.629,0,0,1,0,32.777V5.519A1.629,1.629,0,0,1,1.616,3.878H3.821V1.644A1.629,1.629,0,0,1,5.437,0H24.777a1.631,1.631,0,0,1,1.615,1.644V17.337a.889.889,0,1,1-1.777,0V1.809H5.6v2.07H22.645V17.15a.889.889,0,1,1-1.777,0V5.683H4.98a.854.854,0,0,1-.272.044.865.865,0,0,1-.272-.044H1.777V32.616H14.923a.9.9,0,0,1,0,1.806ZM22.244,31.1l-2.31-2.355a.891.891,0,0,1,0-1.246l0,0a.865.865,0,0,1,1.234,0l1.692,1.722,4.17-4.229a.86.86,0,0,1,1.23,0v0a.9.9,0,0,1,0,1.252h0L23.477,31.1a.872.872,0,0,1-.617.258h-.012A.848.848,0,0,1,22.244,31.1ZM4.68,27.743a.9.9,0,0,1,0-1.806h9.129a.9.9,0,0,1,0,1.806ZM4.763,22a.9.9,0,0,1,0-1.805H15.232a.9.9,0,0,1,0,1.805ZM4.68,16.221a.9.9,0,0,1,0-1.805H17.325a.9.9,0,0,1,0,1.805Zm-.627-5.569a.9.9,0,0,1,0-1.805h8.67a.9.9,0,0,1,0,1.805Z" transform="translate(0)" fill="#14142b" stroke="rgba(0,0,0,0)" stroke-width="1"/>
    </g>
  </g>
</svg>
