<svg xmlns="http://www.w3.org/2000/svg" xmlns:xlink="http://www.w3.org/1999/xlink" width="102.337" height="102.125" viewBox="0 0 102.337 102.125">
  <defs>
    <clipPath id="clip-path">
      <rect id="Rectangle_149221" data-name="Rectangle 149221" width="85.989" height="85.989" fill="none"/>
    </clipPath>
  </defs>
  <g id="Group_184904" data-name="Group 184904" transform="translate(-878 -1411)">
    <g id="Group_184897" data-name="Group 184897" transform="translate(834.996 -0.125)">
      <path id="Path_86718" data-name="Path 86718" d="M58.369,41.021A51.179,51.179,0,0,1,30.9,96.932L8.207,51.066,11.487,0A51.186,51.186,0,0,1,58.369,41.021" transform="translate(85.965 1411.125)" fill="#ffd970"/>
      <path id="Path_86719" data-name="Path 86719" d="M28.479.834,51.169,46.7l-3.28,51.06A51.172,51.172,0,0,1,28.479.834" transform="translate(43.003 1415.492)" fill="#ffd970"/>
      <g id="Group_184886" data-name="Group 184886" transform="translate(51.176 1419.195)" opacity="0.3" style="mix-blend-mode: multiply;isolation: isolate">
        <g id="Group_184885" data-name="Group 184885">
          <g id="Group_184884" data-name="Group 184884" clip-path="url(#clip-path)">
            <path id="Path_86720" data-name="Path 86720" d="M1.311,44.292a42.994,42.994,0,1,0,43-43,42.993,42.993,0,0,0-43,43" transform="translate(-1.312 -1.295)"/>
          </g>
        </g>
      </g>
      <path id="Path_86721" data-name="Path 86721" d="M1.816,41.773a40,40,0,1,0,40-40,40,40,0,0,0-40,40" transform="translate(52.507 1420.418)" fill="#fff"/>
    </g>
    <g id="Group_184898" data-name="Group 184898" transform="translate(0 -99.005)">
      <path id="Union_6" data-name="Union 6" d="M31.98,4.815c-.005-.035-.012-.066-.02-.1a.839.839,0,0,0-.224-.406L27.758.253a.845.845,0,0,0-.6-.253H4.73a.841.841,0,0,0-.61.261L.263,4.31a.827.827,0,0,0-.224.413.648.648,0,0,0-.02.1A.852.852,0,0,0,0,4.916v15.87A11.221,11.221,0,0,0,11.209,31.993h9.805A11,11,0,0,0,32,21.007V4.916C32,4.881,31.983,4.851,31.98,4.815ZM5.09,1.684H26.8l2.343,2.39H2.813ZM30.316,21.007a9.312,9.312,0,0,1-9.3,9.3H11.209a9.534,9.534,0,0,1-9.524-9.522V5.765H30.316Z" transform="translate(913 1545.004)"/>
      <path id="Line_3852" data-name="Line 3852" d="M11,.75H0V-.75H11Z" transform="translate(923.5 1557.5)"/>
    </g>
  </g>
</svg>
