<svg id="STYLE_COLOR" xmlns="http://www.w3.org/2000/svg" width="37.389" height="37.356" viewBox="0 0 37.389 37.356">
  <path id="Path_85307" data-name="Path 85307" d="M218.876,107.944a.5.5,0,0,1-.068-.589.484.484,0,0,1,.076-.1l10.181-10.2a1,1,0,0,1,1.408,0l.027.029a27.008,27.008,0,0,1,6.271,11.4h0l-6.163,6.964-9.165-2.87a11.069,11.069,0,0,0-2.568-4.631Z" transform="translate(-205.088 -96.766)" fill="#28a8ea"/>
  <path id="Path_85308" data-name="Path 85308" d="M282.218,269.035a.994.994,0,0,0-1.2-.738l-.029.008-18.983,5.07a11.2,11.2,0,0,1,0,5.771l6.331,7.887,9.012-3.763,3.632.976a.993.993,0,0,0,1.218-.7l.008-.03A32.093,32.093,0,0,0,282.218,269.035Z" transform="translate(-245.655 -257.564)" fill="#0078d4"/>
  <path id="Path_85309" data-name="Path 85309" d="M221.8,442.51a11.051,11.051,0,0,1-2.542,4.625.5.5,0,0,0,.008.7l10.177,10.162a1,1,0,0,0,1.407,0l.025-.026a26.916,26.916,0,0,0,6.268-11.333Z" transform="translate(-205.442 -420.928)" fill="#0358a7"/>
  <path id="Path_85310" data-name="Path 85310" d="M226.573,244.961v-19.5a1.6,1.6,0,0,0-1.592-1.592h-3.574l-2.526,2.53a.485.485,0,0,0-.076.1.5.5,0,0,0,.068.589,11.046,11.046,0,0,1,2.567,4.631h0a11.2,11.2,0,0,1,0,5.772,11.048,11.048,0,0,1-2.542,4.625.5.5,0,0,0,.008.7l3.743,3.738h2.33A1.594,1.594,0,0,0,226.573,244.961Z" transform="translate(-205.085 -215.936)" opacity="0.1"/>
  <path id="Path_85311" data-name="Path 85311" d="M225.389,264.09v-19.5A1.6,1.6,0,0,0,223.8,243h-3.572l-1.334,1.336a.486.486,0,0,0-.076.1.5.5,0,0,0,.068.589,11.046,11.046,0,0,1,2.567,4.631h0a11.2,11.2,0,0,1,0,5.771,11.048,11.048,0,0,1-2.542,4.625.5.5,0,0,0,.007.7l4.937,4.93A1.6,1.6,0,0,0,225.389,264.09Z" transform="translate(-205.094 -233.872)" opacity="0.2"/>
  <path id="Path_85312" data-name="Path 85312" d="M225.389,261.7V244.592A1.6,1.6,0,0,0,223.8,243h-3.572l-1.334,1.336a.486.486,0,0,0-.076.1.5.5,0,0,0,.068.589,11.046,11.046,0,0,1,2.567,4.631h0a11.2,11.2,0,0,1,0,5.771,11.048,11.048,0,0,1-2.542,4.625.5.5,0,0,0,.007.7l2.548,2.544H223.8A1.6,1.6,0,0,0,225.389,261.7Z" transform="translate(-205.094 -233.872)" opacity="0.2"/>
  <path id="Path_85313" data-name="Path 85313" d="M224.186,261.7V244.592A1.6,1.6,0,0,0,222.594,243h-2.379l-1.334,1.336a.486.486,0,0,0-.076.1.5.5,0,0,0,.068.589,11.046,11.046,0,0,1,2.567,4.631h0a11.2,11.2,0,0,1,0,5.771,11.048,11.048,0,0,1-2.542,4.625.5.5,0,0,0,.008.7l2.548,2.544h1.137A1.6,1.6,0,0,0,224.186,261.7Z" transform="translate(-205.085 -233.872)" opacity="0.2"/>
  <path id="Back_Plate" d="M1.592,243H17.509a1.592,1.592,0,0,1,1.592,1.592v15.918a1.592,1.592,0,0,1-1.592,1.592H1.592A1.592,1.592,0,0,1,0,260.509V244.592A1.592,1.592,0,0,1,1.592,243Z" transform="translate(0 -233.872)" fill="#0078d4"/>
  <path id="Path_85314" data-name="Path 85314" d="M81.357,305.475a4.064,4.064,0,0,1,.267.716h.025a3.406,3.406,0,0,1,.258-.7l2.414-4.548a1.061,1.061,0,0,1,.938-.564h0a1.062,1.062,0,0,1,.921,1.59l-3.341,5.815a1.063,1.063,0,0,0-.141.529v2.943a1.062,1.062,0,0,1-1.062,1.062H81.42a1.062,1.062,0,0,1-1.062-1.062h0v-2.908a1.058,1.058,0,0,0-.135-.517l-3.279-5.872a1.062,1.062,0,0,1,.927-1.579h.208a1.062,1.062,0,0,1,.943.574Z" transform="translate(-72.015 -287.67)" fill="#fff"/>
  <rect id="Rectangle_28599" data-name="Rectangle 28599" width="36.831" height="36.831" transform="translate(0.386 0.254)" fill="none"/>
</svg>
